<?xml version="1.0" encoding="us-ascii" standalone="no"?><svg xmlns="http://www.w3.org/2000/svg" xmlns:xlink="http://www.w3.org/1999/xlink" contentStyleType="text/css" height="916px" preserveAspectRatio="none" style="width:761px;height:916px;background:#FFFFFF;" version="1.1" viewBox="0 0 761 916" width="761px" zoomAndPan="magnify"><defs><filter height="300%" id="f1low9m5ysgk1m" width="300%" x="-1" y="-1"><feGaussianBlur result="blurOut" stdDeviation="2.0"/><feColorMatrix in="blurOut" result="blurOut2" type="matrix" values="0 0 0 0 0 0 0 0 0 0 0 0 0 0 0 0 0 0 .4 0"/><feOffset dx="4.0" dy="4.0" in="blurOut2" result="blurOut3"/><feBlend in="SourceGraphic" in2="blurOut3" mode="normal"/></filter></defs><g><rect fill="none" height="23.5547" style="stroke:none;stroke-width:1.0;" width="728.5" x="15" y="13.2813"/><ellipse cx="118.5" cy="51.8359" fill="#222222" filter="url(#f1low9m5ysgk1m)" rx="10" ry="10" style="stroke:#222222;stroke-width:1.0;"/><rect fill="#E0F2F7" filter="url(#f1low9m5ysgk1m)" height="86.0234" style="stroke:#3498DB;stroke-width:1.5;" width="169" x="34" y="115.8359"/><path d="M132,115.8359 L132,127.1563 L122,137.1563 L34,137.1563 " fill="none" style="stroke:#3498DB;stroke-width:1.5;"/><text fill="#000000" font-family="sans-serif" font-size="14" lengthAdjust="spacing" textLength="88" x="37" y="131.4375">development</text><rect fill="#E0F2F7" filter="url(#f1low9m5ysgk1m)" height="35.7031" rx="12.5" ry="12.5" style="stroke:#3498DB;stroke-width:0.5;" width="149" x="44" y="154.1563"/><text fill="#000000" font-family="sans-serif" font-size="12" lengthAdjust="spacing" textLength="129" x="54" y="176.6719">c++ / cuda source code</text><rect fill="#3498DB" filter="url(#f1low9m5ysgk1m)" height="35.7031" rx="12.5" ry="12.5" style="stroke:#3498DB;stroke-width:0.5;" width="80" x="78.5" y="221.8594"/><text fill="#FFFFFF" font-family="sans-serif" font-size="12" lengthAdjust="spacing" textLength="60" x="88.5" y="244.375">run cmake</text><rect fill="#3498DB" filter="url(#f1low9m5ysgk1m)" height="35.7031" rx="12.5" ry="12.5" style="stroke:#3498DB;stroke-width:0.5;" width="69" x="84" y="333.2656"/><text fill="#FFFFFF" font-family="sans-serif" font-size="12" lengthAdjust="spacing" textLength="49" x="94" y="355.7813">run build</text><rect fill="#E0F2F7" filter="url(#f1low9m5ysgk1m)" height="35.7031" rx="12.5" ry="12.5" style="stroke:#3498DB;stroke-width:0.5;" width="71" x="21" y="559.375"/><text fill="#000000" font-family="sans-serif" font-size="12" lengthAdjust="spacing" textLength="51" x="31" y="581.8906">fix errors</text><rect fill="#E0F2F7" filter="url(#f1low9m5ysgk1m)" height="141.7266" style="stroke:#3498DB;stroke-width:1.5;" width="137" x="112" y="605.0781"/><path d="M175,605.0781 L175,616.3984 L165,626.3984 L112,626.3984 " fill="none" style="stroke:#3498DB;stroke-width:1.5;"/><text fill="#000000" font-family="sans-serif" font-size="14" lengthAdjust="spacing" textLength="53" x="115" y="620.6797">runtime</text><rect fill="#E0F2F7" filter="url(#f1low9m5ysgk1m)" height="35.7031" rx="12.5" ry="12.5" style="stroke:#3498DB;stroke-width:0.5;" width="104" x="128.5" y="643.3984"/><text fill="#000000" font-family="sans-serif" font-size="12" lengthAdjust="spacing" textLength="84" x="138.5" y="665.9141">run application</text><rect fill="#E0F2F7" filter="url(#f1low9m5ysgk1m)" height="35.7031" rx="12.5" ry="12.5" style="stroke:#3498DB;stroke-width:0.5;" width="117" x="122" y="699.1016"/><text fill="#000000" font-family="sans-serif" font-size="12" lengthAdjust="spacing" textLength="97" x="132" y="721.6172">observe behavior</text><polygon fill="#FDEBD0" filter="url(#f1low9m5ysgk1m)" points="118.5,81.8359,130.5,93.8359,118.5,105.8359,106.5,93.8359,118.5,81.8359" style="stroke:#E67E22;stroke-width:0.5;"/><polygon fill="#FDEBD0" filter="url(#f1low9m5ysgk1m)" points="62,766.8047,175,766.8047,187,778.8047,175,790.8047,62,790.8047,50,778.8047,62,766.8047" style="stroke:#E67E22;stroke-width:0.5;"/><text fill="#000000" font-family="sans-serif" font-size="11" lengthAdjust="spacing" textLength="17" x="122.5" y="802.2773">Yes</text><text fill="#000000" font-family="sans-serif" font-size="11" lengthAdjust="spacing" textLength="113" x="62" y="783.0801">tuning / fix complete?</text><text fill="#000000" font-family="sans-serif" font-size="11" lengthAdjust="spacing" textLength="15" x="187" y="775.8828">No</text><rect fill="#E0F2F7" filter="url(#f1low9m5ysgk1m)" height="35.7031" rx="12.5" ry="12.5" style="stroke:#3498DB;stroke-width:0.5;" width="105" x="259" y="418.9688"/><text fill="#000000" font-family="sans-serif" font-size="12" lengthAdjust="spacing" textLength="85" x="269" y="441.4844">perform tuning</text><rect fill="#E0F2F7" filter="url(#f1low9m5ysgk1m)" height="35.7031" rx="12.5" ry="12.5" style="stroke:#3498DB;stroke-width:0.5;" width="57" x="90" y="823.7773"/><text fill="#000000" font-family="sans-serif" font-size="12" lengthAdjust="spacing" textLength="37" x="100" y="846.293">deploy</text><ellipse cx="118.5" cy="889.4805" fill="none" filter="url(#f1low9m5ysgk1m)" rx="10" ry="10" style="stroke:#222222;stroke-width:1.5;"/><line style="stroke:#222222;stroke-width:2.5;" x1="112.3128" x2="124.6872" y1="883.2933" y2="895.6677"/><line style="stroke:#222222;stroke-width:2.5;" x1="124.6872" x2="112.3128" y1="883.2933" y2="895.6677"/><line style="stroke:#000000;stroke-width:1.5;" x1="15" x2="15" y1="13.2813" y2="899.4805"/><rect fill="#3498DB" filter="url(#f1low9m5ysgk1m)" height="35.7031" rx="12.5" ry="12.5" style="stroke:#3498DB;stroke-width:0.5;" width="141" x="380" y="277.5625"/><text fill="#FFFFFF" font-family="sans-serif" font-size="12" lengthAdjust="spacing" textLength="121" x="390" y="300.0781">generate project files</text><line style="stroke:#000000;stroke-width:1.5;" x1="374" x2="374" y1="13.2813" y2="899.4805"/><rect fill="#3498DB" filter="url(#f1low9m5ysgk1m)" height="35.7031" rx="12.5" ry="12.5" style="stroke:#3498DB;stroke-width:0.5;" width="129" x="537" y="388.9688"/><text fill="#FFFFFF" font-family="sans-serif" font-size="12" lengthAdjust="spacing" textLength="109" x="547" y="411.4844">compile CUDA code</text><rect fill="#3498DB" filter="url(#f1low9m5ysgk1m)" height="35.7031" rx="12.5" ry="12.5" style="stroke:#3498DB;stroke-width:0.5;" width="105" x="549" y="459.6719"/><text fill="#FFFFFF" font-family="sans-serif" font-size="12" lengthAdjust="spacing" textLength="85" x="559" y="482.1875">link CUDA code</text><polygon fill="#FDEBD0" filter="url(#f1low9m5ysgk1m)" points="576,515.375,627,515.375,639,527.375,627,539.375,576,539.375,564,527.375,576,515.375" style="stroke:#E67E22;stroke-width:0.5;"/><text fill="#000000" font-family="sans-serif" font-size="11" lengthAdjust="spacing" textLength="51" x="576" y="531.6504">build fail?</text><text fill="#000000" font-family="sans-serif" font-size="11" lengthAdjust="spacing" textLength="17" x="547" y="524.4531">Yes</text><text fill="#000000" font-family="sans-serif" font-size="11" lengthAdjust="spacing" textLength="15" x="639" y="524.4531">No</text><rect fill="#3498DB" filter="url(#f1low9m5ysgk1m)" height="35.7031" rx="12.5" ry="12.5" style="stroke:#3498DB;stroke-width:0.5;" width="137" x="595" y="559.375"/><text fill="#FFFFFF" font-family="sans-serif" font-size="12" lengthAdjust="spacing" textLength="117" x="605" y="581.8906">generate application</text><line style="stroke:#000000;stroke-width:1.5;" x1="531" x2="531" y1="13.2813" y2="899.4805"/><line style="stroke:#000000;stroke-width:1.5;" x1="742" x2="742" y1="13.2813" y2="899.4805"/><line style="stroke:#3498DB;stroke-width:1.0;" x1="118.5" x2="118.5" y1="189.8594" y2="221.8594"/><polygon fill="#3498DB" points="114.5,211.8594,118.5,221.8594,122.5,211.8594,118.5,215.8594" style="stroke:#3498DB;stroke-width:1.0;"/><line style="stroke:#3498DB;stroke-width:1.0;" x1="180.5" x2="180.5" y1="679.1016" y2="699.1016"/><polygon fill="#3498DB" points="176.5,689.1016,180.5,699.1016,184.5,689.1016,180.5,693.1016" style="stroke:#3498DB;stroke-width:1.0;"/><line style="stroke:#3498DB;stroke-width:1.0;" x1="118.5" x2="118.5" y1="105.8359" y2="154.1563"/><polygon fill="#3498DB" points="114.5,144.1563,118.5,154.1563,122.5,144.1563,118.5,148.1563" style="stroke:#3498DB;stroke-width:1.0;"/><line style="stroke:#3498DB;stroke-width:1.0;" x1="187" x2="311.5" y1="778.8047" y2="778.8047"/><line style="stroke:#3498DB;stroke-width:1.0;" x1="311.5" x2="311.5" y1="454.6719" y2="778.8047"/><polygon fill="#3498DB" points="307.5,464.6719,311.5,454.6719,315.5,464.6719,311.5,460.6719" style="stroke:#3498DB;stroke-width:1.0;"/><line style="stroke:#3498DB;stroke-width:1.0;" x1="311.5" x2="311.5" y1="93.8359" y2="418.9688"/><line style="stroke:#3498DB;stroke-width:1.0;" x1="311.5" x2="130.5" y1="93.8359" y2="93.8359"/><polygon fill="#3498DB" points="140.5,89.8359,130.5,93.8359,140.5,97.8359,136.5,93.8359" style="stroke:#3498DB;stroke-width:1.0;"/><line style="stroke:#3498DB;stroke-width:1.0;" x1="118.5" x2="118.5" y1="61.8359" y2="81.8359"/><polygon fill="#3498DB" points="114.5,71.8359,118.5,81.8359,122.5,71.8359,118.5,75.8359" style="stroke:#3498DB;stroke-width:1.0;"/><line style="stroke:#3498DB;stroke-width:1.0;" x1="118.5" x2="118.5" y1="790.8047" y2="823.7773"/><polygon fill="#3498DB" points="114.5,813.7773,118.5,823.7773,122.5,813.7773,118.5,817.7773" style="stroke:#3498DB;stroke-width:1.0;"/><line style="stroke:#3498DB;stroke-width:1.0;" x1="118.5" x2="118.5" y1="859.4805" y2="879.4805"/><polygon fill="#3498DB" points="114.5,869.4805,118.5,879.4805,122.5,869.4805,118.5,873.4805" style="stroke:#3498DB;stroke-width:1.0;"/><line style="stroke:#3498DB;stroke-width:1.0;" x1="601.5" x2="601.5" y1="424.6719" y2="459.6719"/><polygon fill="#3498DB" points="597.5,449.6719,601.5,459.6719,605.5,449.6719,601.5,453.6719" style="stroke:#3498DB;stroke-width:1.0;"/><line style="stroke:#3498DB;stroke-width:1.0;" x1="639" x2="663.5" y1="527.375" y2="527.375"/><line style="stroke:#3498DB;stroke-width:1.0;" x1="663.5" x2="663.5" y1="527.375" y2="559.375"/><polygon fill="#3498DB" points="659.5,549.375,663.5,559.375,667.5,549.375,663.5,553.375" style="stroke:#3498DB;stroke-width:1.0;"/><line style="stroke:#3498DB;stroke-width:1.0;" x1="601.5" x2="601.5" y1="495.375" y2="515.375"/><polygon fill="#3498DB" points="597.5,505.375,601.5,515.375,605.5,505.375,601.5,509.375" style="stroke:#3498DB;stroke-width:1.0;"/><line style="stroke:#3498DB;stroke-width:1.0;" x1="118.5" x2="118.5" y1="257.5625" y2="262.5625"/><line style="stroke:#3498DB;stroke-width:1.0;" x1="118.5" x2="450.5" y1="262.5625" y2="262.5625"/><line style="stroke:#3498DB;stroke-width:1.0;" x1="450.5" x2="450.5" y1="262.5625" y2="277.5625"/><polygon fill="#3498DB" points="446.5,267.5625,450.5,277.5625,454.5,267.5625,450.5,271.5625" style="stroke:#3498DB;stroke-width:1.0;"/><line style="stroke:#3498DB;stroke-width:1.0;" x1="450.5" x2="450.5" y1="313.2656" y2="318.2656"/><line style="stroke:#3498DB;stroke-width:1.0;" x1="450.5" x2="118.5" y1="318.2656" y2="318.2656"/><line style="stroke:#3498DB;stroke-width:1.0;" x1="118.5" x2="118.5" y1="318.2656" y2="333.2656"/><polygon fill="#3498DB" points="114.5,323.2656,118.5,333.2656,122.5,323.2656,118.5,327.2656" style="stroke:#3498DB;stroke-width:1.0;"/><line style="stroke:#3498DB;stroke-width:1.0;" x1="118.5" x2="118.5" y1="368.9688" y2="373.9688"/><line style="stroke:#3498DB;stroke-width:1.0;" x1="118.5" x2="601.5" y1="373.9688" y2="373.9688"/><line style="stroke:#3498DB;stroke-width:1.0;" x1="601.5" x2="601.5" y1="373.9688" y2="388.9688"/><polygon fill="#3498DB" points="597.5,378.9688,601.5,388.9688,605.5,378.9688,601.5,382.9688" style="stroke:#3498DB;stroke-width:1.0;"/><line style="stroke:#3498DB;stroke-width:1.0;" x1="663.5" x2="663.5" y1="595.0781" y2="606.7383"/><line style="stroke:#3498DB;stroke-width:1.0;" x1="663.5" x2="180.5" y1="606.7383" y2="606.7383"/><line style="stroke:#3498DB;stroke-width:1.0;" x1="180.5" x2="180.5" y1="606.7383" y2="643.3984"/><polygon fill="#3498DB" points="176.5,633.3984,180.5,643.3984,184.5,633.3984,180.5,637.3984" style="stroke:#3498DB;stroke-width:1.0;"/><line style="stroke:#3498DB;stroke-width:1.0;" x1="564" x2="56.5" y1="527.375" y2="527.375"/><line style="stroke:#3498DB;stroke-width:1.0;" x1="56.5" x2="56.5" y1="527.375" y2="559.375"/><polygon fill="#3498DB" points="52.5,549.375,56.5,559.375,60.5,549.375,56.5,553.375" style="stroke:#3498DB;stroke-width:1.0;"/><line style="stroke:#3498DB;stroke-width:1.0;" x1="180.5" x2="180.5" y1="734.8047" y2="751.8047"/><line style="stroke:#3498DB;stroke-width:1.0;" x1="180.5" x2="118.5" y1="751.8047" y2="751.8047"/><line style="stroke:#3498DB;stroke-width:1.0;" x1="118.5" x2="118.5" y1="751.8047" y2="766.8047"/><polygon fill="#3498DB" points="114.5,756.8047,118.5,766.8047,122.5,756.8047,118.5,760.8047" style="stroke:#3498DB;stroke-width:1.0;"/><text fill="#000000" font-family="sans-serif" font-size="18" lengthAdjust="spacing" textLength="84" x="152.5" y="32.0547">developer</text><text fill="#000000" font-family="sans-serif" font-size="18" lengthAdjust="spacing" textLength="120" x="392.5" y="32.0547">CMake system</text><text fill="#000000" font-family="sans-serif" font-size="18" lengthAdjust="spacing" textLength="157" x="558" y="32.0547">NVCC build system</text><!--SRC=[hLDDZzGm3BtdLrZBPLPxO3KW5be4WgwuiJUGEAQ9CmsJnbNYpZ1Yzh_ZVh3CG64l75gbzhFVyukRjpvsEkaMSgCjxNtS0ASULNv8QCD-v_a0tnN0UssscqHzj1K5Il04hztQtGmPIXRJ77ts_DLBMqlq0qMUOdMGKdMlJZhBcprxYl-_jKw9zcFRyx9pq3pPhTSjHRkimbcixVNlAl353QxNoogE5dSOgCDqL9bbHgKITgXPuBz6lfXHBKQ-6Aa12dDr1K_1z5P3fZuP14CMIqdUopCFKRms0s6nRppZczH7CAtU2aeWn-gZ724VCcDx_5lD1YCcpGXTegze69mFcAS69-B_mLZtFjYfuEvpLKtVZz4QQZiXWkhJxRk7mHQHmSVjESmxM4qaJllmzXAumGYhBvWlH-lETOkLpdy3b2r8kHm35bcRHeuOCiBgZkQwHVcF-QQxBdYZXuii5-bFxbdiOj_YppiUnGqM_j5Zp52TCUqGQcpqpbEQKiFjOxJUgLgMRA-JBOJAKMg1-oW_RJcl68XGSNWrHMMN1Xi6tmCoYci-ZwD399xDKuN5Bj2XL4Bm0m00]--></g></svg>