<svg width="1450" height="710" xmlns="http://www.w3.org/2000/svg">

  <g id="cpu">
    <defs>
      <g id="cpu_core_and_control">
        <rect x="0" y="0" width="245" height="140" fill="#6ab04c" stroke="#4a8c2c" stroke-width="2" />
        <rect x="245" y="0" width="90" height="180" fill="#f9ca24" stroke="#d9aa04" stroke-width="2" />
        <text x="115.5" y="80" font-family="Arial" font-size="24" fill="white" text-anchor="middle">Core</text>
        <text x="290" y="80" font-family="Arial" font-size="24" fill="white" text-anchor="middle">Con</text>
        <text x="290" y="110" font-family="Arial" font-size="24" fill="white" text-anchor="middle">trol</text>
        <rect x="0" y="140" width="245" height="40" fill="#8e44ad" stroke="#6e248d" stroke-width="2" />
        <text x="122.5" y="165" font-family="Arial" font-size="24" fill="white" text-anchor="middle">L1 Cache</text>
      </g>
    </defs>

    <use href="#cpu_core_and_control" x="10" y="10"/>
    <use href="#cpu_core_and_control" x="10" y="200"/>
    <use href="#cpu_core_and_control" x="355" y="10"/>
    <use href="#cpu_core_and_control" x="355" y="200"/>

    <rect x="10" y="390" width="335" height="60" fill="#3498db" stroke="#1478bb" stroke-width="2" />
    <rect x="355" y="390" width="335" height="60" fill="#3498db" stroke="#1478bb" stroke-width="2" />
    <text x="177.5" y="425" font-family="Arial" font-size="24" fill="white" text-anchor="middle">L2 Cache</text>
    <text x="512.5" y="425" font-family="Arial" font-size="24" fill="white" text-anchor="middle">L2 Cache</text>

    <rect x="10" y="460" width="680" height="90" fill="#3498db" stroke="#1478bb" stroke-width="2" />
    <text x="345" y="510" font-family="Arial" font-size="24" fill="white" text-anchor="middle">L3 Cache</text>

    <rect x="10" y="560" width="680" height="90" fill="#e67e22" stroke="#c65e02" stroke-width="2" />
    <text x="345" y="610" font-family="Arial" font-size="24" fill="white" text-anchor="middle">DRAM</text>

    <text x="345" y="690" font-family="Arial" font-size="24" font-weight="bold" text-anchor="middle">CPU</text>
  </g>

  <g id="gpu">
    <defs>
      <g id="gpu_control_and_cores">
        <rect x="0" y="0" width="40" height="20" fill="#f9ca24" stroke="#d9aa04" stroke-width="2"/>
        <rect x="0" y="20" width="40" height="20" fill="#8e44ad" stroke="#6e248d" stroke-width="2"/>
        <rect x="40" y="0" width="640" height="40" fill="#6ab04c" stroke="#4a8c2c" stroke-width="2" />
        <line x1="80" x2="80" y1="0" y2="40" stroke="#888" stroke-width="1"/>
        <line x1="120" x2="120" y1="0" y2="40" stroke="#888" stroke-width="1"/>
        <line x1="160" x2="160" y1="0" y2="40" stroke="#888" stroke-width="1"/>
        <line x1="200" x2="200" y1="0" y2="40" stroke="#888" stroke-width="1"/>
        <line x1="240" x2="240" y1="0" y2="40" stroke="#888" stroke-width="1"/>
        <line x1="280" x2="280" y1="0" y2="40" stroke="#888" stroke-width="1"/>
        <line x1="320" x2="320" y1="0" y2="40" stroke="#888" stroke-width="1"/>
        <line x1="360" x2="360" y1="0" y2="40" stroke="#888" stroke-width="1"/>
        <line x1="400" x2="400" y1="0" y2="40" stroke="#888" stroke-width="1"/>
        <line x1="440" x2="440" y1="0" y2="40" stroke="#888" stroke-width="1"/>
        <line x1="480" x2="480" y1="0" y2="40" stroke="#888" stroke-width="1"/>
        <line x1="520" x2="520" y1="0" y2="40" stroke="#888" stroke-width="1"/>
        <line x1="560" x2="560" y1="0" y2="40" stroke="#888" stroke-width="1"/>
        <line x1="600" x2="600" y1="0" y2="40" stroke="#888" stroke-width="1"/>
        <line x1="640" x2="640" y1="0" y2="40" stroke="#888" stroke-width="1"/>
      </g>
    </defs>

    <use href="#gpu_control_and_cores" x="760" y="10"/>
    <use href="#gpu_control_and_cores" x="760" y="50"/>
    <use href="#gpu_control_and_cores" x="760" y="90"/>
    <use href="#gpu_control_and_cores" x="760" y="130"/>
    <use href="#gpu_control_and_cores" x="760" y="170"/>
    <use href="#gpu_control_and_cores" x="760" y="210"/>
    <use href="#gpu_control_and_cores" x="760" y="250"/>
    <use href="#gpu_control_and_cores" x="760" y="290"/>
    <use href="#gpu_control_and_cores" x="760" y="330"/>
    <use href="#gpu_control_and_cores" x="760" y="370"/>
    <use href="#gpu_control_and_cores" x="760" y="410"/>
    <use href="#gpu_control_and_cores" x="760" y="450"/>

    <rect x="760" y="500" width="680" height="60" fill="#3498db" stroke="#1478bb" stroke-width="2" />
    <text x="1100" y="535" font-family="Arial" font-size="24" fill="white" text-anchor="middle">L2 Cache</text>
    <rect x="760" y="570" width="680" height="80" fill="#e67e22" stroke="#c65e02" stroke-width="2" />
    <text x="1100" y="615" font-family="Arial" font-size="24" fill="white" text-anchor="middle">DRAM</text>
    <text x="1100" y="690" font-family="Arial" font-size="24" font-weight="bold" text-anchor="middle">GPU</text>
  </g>
</svg>