<?xml version="1.0" encoding="us-ascii" standalone="no"?><svg xmlns="http://www.w3.org/2000/svg" xmlns:xlink="http://www.w3.org/1999/xlink" contentStyleType="text/css" height="866px" preserveAspectRatio="none" style="width:803px;height:866px;background:#FFFFFF;" version="1.1" viewBox="0 0 803 866" width="803px" zoomAndPan="magnify"><defs><filter height="300%" id="ftvtu2l9hslt0" width="300%" x="-1" y="-1"><feGaussianBlur result="blurOut" stdDeviation="2.0"/><feColorMatrix in="blurOut" result="blurOut2" type="matrix" values="0 0 0 0 0 0 0 0 0 0 0 0 0 0 0 0 0 0 .4 0"/><feOffset dx="4.0" dy="4.0" in="blurOut2" result="blurOut3"/><feBlend in="SourceGraphic" in2="blurOut3" mode="normal"/></filter></defs><g><rect fill="none" height="23.5547" style="stroke:none;stroke-width:1.0;" width="770.5" x="15" y="13.2813"/><ellipse cx="118.5" cy="51.8359" fill="#222222" filter="url(#ftvtu2l9hslt0)" rx="10" ry="10" style="stroke:#222222;stroke-width:1.0;"/><rect fill="#E0F2F7" filter="url(#ftvtu2l9hslt0)" height="86.0234" style="stroke:#3498DB;stroke-width:1.5;" width="188" x="24.5" y="115.8359"/><path d="M122.5,115.8359 L122.5,127.1563 L112.5,137.1563 L24.5,137.1563 " fill="none" style="stroke:#3498DB;stroke-width:1.5;"/><text fill="#000000" font-family="sans-serif" font-size="14" lengthAdjust="spacing" textLength="88" x="27.5" y="131.4375">development</text><rect fill="#E0F2F7" filter="url(#ftvtu2l9hslt0)" height="35.7031" rx="12.5" ry="12.5" style="stroke:#3498DB;stroke-width:0.5;" width="168" x="34.5" y="154.1563"/><text fill="#000000" font-family="sans-serif" font-size="12" lengthAdjust="spacing" textLength="148" x="44.5" y="176.6719">python / cuda source code</text><rect fill="#E0F2F7" filter="url(#ftvtu2l9hslt0)" height="35.7031" rx="12.5" ry="12.5" style="stroke:#3498DB;stroke-width:0.5;" width="178" x="29.5" y="221.8594"/><text fill="#000000" font-family="sans-serif" font-size="12" lengthAdjust="spacing" textLength="158" x="39.5" y="244.375">run interpreter / application</text><rect fill="#E0F2F7" filter="url(#ftvtu2l9hslt0)" height="35.7031" rx="12.5" ry="12.5" style="stroke:#3498DB;stroke-width:0.5;" width="71" x="21" y="509.3447"/><text fill="#000000" font-family="sans-serif" font-size="12" lengthAdjust="spacing" textLength="51" x="31" y="531.8604">fix errors</text><rect fill="#E0F2F7" filter="url(#ftvtu2l9hslt0)" height="86.0234" style="stroke:#3498DB;stroke-width:1.5;" width="137" x="112" y="610.751"/><path d="M175,610.751 L175,622.0713 L165,632.0713 L112,632.0713 " fill="none" style="stroke:#3498DB;stroke-width:1.5;"/><text fill="#000000" font-family="sans-serif" font-size="14" lengthAdjust="spacing" textLength="53" x="115" y="626.3525">runtime</text><rect fill="#E0F2F7" filter="url(#ftvtu2l9hslt0)" height="35.7031" rx="12.5" ry="12.5" style="stroke:#3498DB;stroke-width:0.5;" width="117" x="122" y="649.0713"/><text fill="#000000" font-family="sans-serif" font-size="12" lengthAdjust="spacing" textLength="97" x="132" y="671.5869">observe behavior</text><polygon fill="#FDEBD0" filter="url(#ftvtu2l9hslt0)" points="118.5,81.8359,130.5,93.8359,118.5,105.8359,106.5,93.8359,118.5,81.8359" style="stroke:#E67E22;stroke-width:0.5;"/><polygon fill="#FDEBD0" filter="url(#ftvtu2l9hslt0)" points="62,716.7744,175,716.7744,187,728.7744,175,740.7744,62,740.7744,50,728.7744,62,716.7744" style="stroke:#E67E22;stroke-width:0.5;"/><text fill="#000000" font-family="sans-serif" font-size="11" lengthAdjust="spacing" textLength="17" x="122.5" y="752.2471">Yes</text><text fill="#000000" font-family="sans-serif" font-size="11" lengthAdjust="spacing" textLength="113" x="62" y="733.0498">tuning / fix complete?</text><text fill="#000000" font-family="sans-serif" font-size="11" lengthAdjust="spacing" textLength="15" x="187" y="725.8525">No</text><rect fill="#E0F2F7" filter="url(#ftvtu2l9hslt0)" height="35.7031" rx="12.5" ry="12.5" style="stroke:#3498DB;stroke-width:0.5;" width="105" x="259" y="397.0928"/><text fill="#000000" font-family="sans-serif" font-size="12" lengthAdjust="spacing" textLength="85" x="269" y="419.6084">perform tuning</text><rect fill="#E0F2F7" filter="url(#ftvtu2l9hslt0)" height="35.7031" rx="12.5" ry="12.5" style="stroke:#3498DB;stroke-width:0.5;" width="57" x="90" y="773.7471"/><text fill="#000000" font-family="sans-serif" font-size="12" lengthAdjust="spacing" textLength="37" x="100" y="796.2627">deploy</text><ellipse cx="118.5" cy="839.4502" fill="none" filter="url(#ftvtu2l9hslt0)" rx="10" ry="10" style="stroke:#222222;stroke-width:1.5;"/><line style="stroke:#222222;stroke-width:2.5;" x1="112.3128" x2="124.6872" y1="833.263" y2="845.6374"/><line style="stroke:#222222;stroke-width:2.5;" x1="124.6872" x2="112.3128" y1="833.263" y2="845.6374"/><line style="stroke:#000000;stroke-width:1.5;" x1="15" x2="15" y1="13.2813" y2="849.4502"/><rect fill="#6AB04C" filter="url(#ftvtu2l9hslt0)" height="35.7031" rx="12.5" ry="12.5" style="stroke:#3498DB;stroke-width:0.5;" width="116" x="402.5" y="277.5625"/><text fill="#FFFFFF" font-family="sans-serif" font-size="12" lengthAdjust="spacing" textLength="96" x="412.5" y="300.0781">load python code</text><rect fill="#6AB04C" filter="url(#ftvtu2l9hslt0)" height="35.7031" rx="12.5" ry="12.5" style="stroke:#3498DB;stroke-width:0.5;" width="161" x="380" y="333.2656"/><text fill="#FFFFFF" font-family="sans-serif" font-size="12" lengthAdjust="spacing" textLength="141" x="390" y="355.7813">load CUDA code as string</text><rect fill="#6AB04C" filter="url(#ftvtu2l9hslt0)" height="35.7031" rx="12.5" ry="12.5" style="stroke:#3498DB;stroke-width:0.5;" width="113" x="466" y="565.0479"/><text fill="#FFFFFF" font-family="sans-serif" font-size="12" lengthAdjust="spacing" textLength="93" x="476" y="587.5635">call CUDA kernal</text><line style="stroke:#000000;stroke-width:1.5;" x1="374" x2="374" y1="13.2813" y2="849.4502"/><rect fill="#6AB04C" filter="url(#ftvtu2l9hslt0)" height="35.7031" rx="12.5" ry="12.5" style="stroke:#3498DB;stroke-width:0.5;" width="129" x="595" y="409.6416"/><text fill="#FFFFFF" font-family="sans-serif" font-size="12" lengthAdjust="spacing" textLength="109" x="605" y="432.1572">compile CUDA code</text><polygon fill="#FDEBD0" filter="url(#ftvtu2l9hslt0)" points="635,465.3447,684,465.3447,696,477.3447,684,489.3447,635,489.3447,623,477.3447,635,465.3447" style="stroke:#E67E22;stroke-width:0.5;"/><text fill="#000000" font-family="sans-serif" font-size="11" lengthAdjust="spacing" textLength="49" x="635" y="481.6201">JIT error?</text><text fill="#000000" font-family="sans-serif" font-size="11" lengthAdjust="spacing" textLength="17" x="606" y="474.4229">Yes</text><text fill="#000000" font-family="sans-serif" font-size="11" lengthAdjust="spacing" textLength="15" x="696" y="474.4229">No</text><rect fill="#6AB04C" filter="url(#ftvtu2l9hslt0)" height="35.7031" rx="12.5" ry="12.5" style="stroke:#3498DB;stroke-width:0.5;" width="105" x="669" y="509.3447"/><text fill="#FFFFFF" font-family="sans-serif" font-size="12" lengthAdjust="spacing" textLength="85" x="679" y="531.8604">link CUDA code</text><line style="stroke:#000000;stroke-width:1.5;" x1="589" x2="589" y1="13.2813" y2="849.4502"/><line style="stroke:#000000;stroke-width:1.5;" x1="784" x2="784" y1="13.2813" y2="849.4502"/><line style="stroke:#3498DB;stroke-width:1.0;" x1="118.5" x2="118.5" y1="189.8594" y2="221.8594"/><polygon fill="#3498DB" points="114.5,211.8594,118.5,221.8594,122.5,211.8594,118.5,215.8594" style="stroke:#3498DB;stroke-width:1.0;"/><line style="stroke:#3498DB;stroke-width:1.0;" x1="118.5" x2="118.5" y1="105.8359" y2="154.1563"/><polygon fill="#3498DB" points="114.5,144.1563,118.5,154.1563,122.5,144.1563,118.5,148.1563" style="stroke:#3498DB;stroke-width:1.0;"/><line style="stroke:#3498DB;stroke-width:1.0;" x1="187" x2="311.5" y1="728.7744" y2="728.7744"/><line style="stroke:#3498DB;stroke-width:1.0;" x1="311.5" x2="311.5" y1="432.7959" y2="728.7744"/><polygon fill="#3498DB" points="307.5,442.7959,311.5,432.7959,315.5,442.7959,311.5,438.7959" style="stroke:#3498DB;stroke-width:1.0;"/><line style="stroke:#3498DB;stroke-width:1.0;" x1="311.5" x2="311.5" y1="93.8359" y2="397.0928"/><line style="stroke:#3498DB;stroke-width:1.0;" x1="311.5" x2="130.5" y1="93.8359" y2="93.8359"/><polygon fill="#3498DB" points="140.5,89.8359,130.5,93.8359,140.5,97.8359,136.5,93.8359" style="stroke:#3498DB;stroke-width:1.0;"/><line style="stroke:#3498DB;stroke-width:1.0;" x1="118.5" x2="118.5" y1="61.8359" y2="81.8359"/><polygon fill="#3498DB" points="114.5,71.8359,118.5,81.8359,122.5,71.8359,118.5,75.8359" style="stroke:#3498DB;stroke-width:1.0;"/><line style="stroke:#3498DB;stroke-width:1.0;" x1="118.5" x2="118.5" y1="740.7744" y2="773.7471"/><polygon fill="#3498DB" points="114.5,763.7471,118.5,773.7471,122.5,763.7471,118.5,767.7471" style="stroke:#3498DB;stroke-width:1.0;"/><line style="stroke:#3498DB;stroke-width:1.0;" x1="118.5" x2="118.5" y1="809.4502" y2="829.4502"/><polygon fill="#3498DB" points="114.5,819.4502,118.5,829.4502,122.5,819.4502,118.5,823.4502" style="stroke:#3498DB;stroke-width:1.0;"/><line style="stroke:#4A8C2C;stroke-width:1.0;" x1="460.5" x2="460.5" y1="313.2656" y2="333.2656"/><polygon fill="#4A8C2C" points="456.5,323.2656,460.5,333.2656,464.5,323.2656,460.5,327.2656" style="stroke:#4A8C2C;stroke-width:1.0;"/><line style="stroke:#4A8C2C;stroke-width:1.0;" x1="696" x2="721.5" y1="477.3447" y2="477.3447"/><line style="stroke:#4A8C2C;stroke-width:1.0;" x1="721.5" x2="721.5" y1="477.3447" y2="509.3447"/><polygon fill="#4A8C2C" points="717.5,499.3447,721.5,509.3447,725.5,499.3447,721.5,503.3447" style="stroke:#4A8C2C;stroke-width:1.0;"/><line style="stroke:#4A8C2C;stroke-width:1.0;" x1="659.5" x2="659.5" y1="445.3447" y2="465.3447"/><polygon fill="#4A8C2C" points="655.5,455.3447,659.5,465.3447,663.5,455.3447,659.5,459.3447" style="stroke:#4A8C2C;stroke-width:1.0;"/><line style="stroke:#3498DB;stroke-width:1.0;" x1="118.5" x2="118.5" y1="257.5625" y2="262.5625"/><line style="stroke:#3498DB;stroke-width:1.0;" x1="118.5" x2="460.5" y1="262.5625" y2="262.5625"/><line style="stroke:#3498DB;stroke-width:1.0;" x1="460.5" x2="460.5" y1="262.5625" y2="277.5625"/><polygon fill="#3498DB" points="456.5,267.5625,460.5,277.5625,464.5,267.5625,460.5,271.5625" style="stroke:#3498DB;stroke-width:1.0;"/><line style="stroke:#4A8C2C;stroke-width:1.0;" x1="460.5" x2="460.5" y1="368.9688" y2="392.0928"/><line style="stroke:#4A8C2C;stroke-width:1.0;" x1="460.5" x2="659.5" y1="392.0928" y2="392.0928"/><line style="stroke:#4A8C2C;stroke-width:1.0;" x1="659.5" x2="659.5" y1="392.0928" y2="409.6416"/><polygon fill="#4A8C2C" points="655.5,399.6416,659.5,409.6416,663.5,399.6416,659.5,403.6416" style="stroke:#4A8C2C;stroke-width:1.0;"/><text fill="#000000" font-family="sans-serif" font-size="11" lengthAdjust="spacing" textLength="89" x="464.5" y="385.5928">.cu / .cuh (string)</text><line style="stroke:#4A8C2C;stroke-width:1.0;" x1="721.5" x2="721.5" y1="545.0479" y2="550.0479"/><line style="stroke:#4A8C2C;stroke-width:1.0;" x1="721.5" x2="522.5" y1="550.0479" y2="550.0479"/><line style="stroke:#4A8C2C;stroke-width:1.0;" x1="522.5" x2="522.5" y1="550.0479" y2="565.0479"/><polygon fill="#4A8C2C" points="518.5,555.0479,522.5,565.0479,526.5,555.0479,522.5,559.0479" style="stroke:#4A8C2C;stroke-width:1.0;"/><line style="stroke:#4A8C2C;stroke-width:1.0;" x1="522.5" x2="522.5" y1="600.751" y2="612.4111"/><line style="stroke:#4A8C2C;stroke-width:1.0;" x1="522.5" x2="180.5" y1="612.4111" y2="612.4111"/><line style="stroke:#4A8C2C;stroke-width:1.0;" x1="180.5" x2="180.5" y1="612.4111" y2="649.0713"/><polygon fill="#4A8C2C" points="176.5,639.0713,180.5,649.0713,184.5,639.0713,180.5,643.0713" style="stroke:#4A8C2C;stroke-width:1.0;"/><line style="stroke:#3498DB;stroke-width:1.0;" x1="623" x2="56.5" y1="477.3447" y2="477.3447"/><line style="stroke:#3498DB;stroke-width:1.0;" x1="56.5" x2="56.5" y1="477.3447" y2="509.3447"/><polygon fill="#3498DB" points="52.5,499.3447,56.5,509.3447,60.5,499.3447,56.5,503.3447" style="stroke:#3498DB;stroke-width:1.0;"/><line style="stroke:#3498DB;stroke-width:1.0;" x1="180.5" x2="180.5" y1="684.7744" y2="701.7744"/><line style="stroke:#3498DB;stroke-width:1.0;" x1="180.5" x2="118.5" y1="701.7744" y2="701.7744"/><line style="stroke:#3498DB;stroke-width:1.0;" x1="118.5" x2="118.5" y1="701.7744" y2="716.7744"/><polygon fill="#3498DB" points="114.5,706.7744,118.5,716.7744,122.5,706.7744,118.5,710.7744" style="stroke:#3498DB;stroke-width:1.0;"/><text fill="#000000" font-family="sans-serif" font-size="18" lengthAdjust="spacing" textLength="84" x="152.5" y="32.0547">developer</text><text fill="#000000" font-family="sans-serif" font-size="18" lengthAdjust="spacing" textLength="157" x="403" y="32.0547">python interpreter</text><text fill="#000000" font-family="sans-serif" font-size="18" lengthAdjust="spacing" textLength="119" x="627" y="32.0547">CuPy backend</text><!--SRC=[hL9DRzD04BtlhnWr5-TGY4BK5WSLGIeaE20EvO0GX_Nkk5vblMlDhXCYtF_E-AFK2Gud3bvPCs_Ul9atOMjS9KcM40gf_Twu1uXKemX_4b95ipFn0By4m7kfjW_aQwSttdg26IxoPNxTPZnff27wQlNwHcSS_U1Tx6EPvLBnA4RC_4OJZNV_dreI-Nr7Urns31eckpEoz4vFgyWrPdfngWAlhd6vd5RHQDoXzHLI8qBa6GLXXJ8o-ddYYm5KeeiNNMU0j3h4WdClGTLQGl0rAGJbDQuv_yXVIhK3uo9IHSWlGsLLMQDaIxeM36a6aX6g4RChcIrMAdsZMgdflZ0HRwsN6WRqKnE0o- -pbRnHI_NZylOVTPklT- -wAf01GYG-dBP-N0qlLCq2-IqWwI7pNkAc_dA0ZDU5JZSSc6oZV5aPYy-TJlbRAfD3ykdZFI3xJM_d40jqa7p3CE-66LlHRJWtFtjiwAVL6AKg-1TjG4W- -_dVI-Y8JYMV4MsDsnuhdYARikWifPBMzfHR92VjETAJKKUdnaSJJObFPzOjmcS1QOUGOI5tnbFFsjuO3sXo8TfPzv9qoeovfn9YxJgJ-sC65iVc97sKRMutsrfcUHmsmeHkc-1y7FmGgSRA-iDQS8VV]--></g></svg>