<svg width="1564" height="798" xmlns="http://www.w3.org/2000/svg" xmlns:xlink="http://www.w3.org/1999/xlink" xml:space="preserve" overflow="hidden"><g transform="translate(-1135 -1102)"><path d="M1137.5 1139.17C1137.5 1120.02 1153.02 1104.5 1172.17 1104.5L2661.83 1104.5C2680.98 1104.5 2696.5 1120.02 2696.5 1139.17L2696.5 1277.83C2696.5 1296.98 2680.98 1312.5 2661.83 1312.5L1172.17 1312.5C1153.02 1312.5 1137.5 1296.98 1137.5 1277.83Z" stroke="#000000" stroke-width="4.58333" stroke-miterlimit="8" fill="#C2F1C8" fill-rule="evenodd"/><path d="M1202.5 1165.17C1202.5 1153.2 1212.2 1143.5 1224.17 1143.5L1310.83 1143.5C1322.8 1143.5 1332.5 1153.2 1332.5 1165.17L1332.5 1251.83C1332.5 1263.8 1322.8 1273.5 1310.83 1273.5L1224.17 1273.5C1212.2 1273.5 1202.5 1263.8 1202.5 1251.83Z" stroke="#000000" stroke-width="4.58333" stroke-miterlimit="8" fill="#47D45A" fill-rule="evenodd"/><path d="M1574.5 1165C1574.5 1153.13 1584.13 1143.5 1596 1143.5L1682 1143.5C1693.87 1143.5 1703.5 1153.13 1703.5 1165L1703.5 1252C1703.5 1263.87 1693.87 1273.5 1682 1273.5L1596 1273.5C1584.13 1273.5 1574.5 1263.87 1574.5 1252Z" stroke="#000000" stroke-width="4.58333" stroke-miterlimit="8" fill="#47D45A" fill-rule="evenodd"/><path d="M1388.5 1165.17C1388.5 1153.2 1398.2 1143.5 1410.17 1143.5L1496.83 1143.5C1508.8 1143.5 1518.5 1153.2 1518.5 1165.17L1518.5 1251.83C1518.5 1263.8 1508.8 1273.5 1496.83 1273.5L1410.17 1273.5C1398.2 1273.5 1388.5 1263.8 1388.5 1251.83Z" stroke="#000000" stroke-width="4.58333" stroke-miterlimit="8" fill="#47D45A" fill-rule="evenodd"/><path d="M1759.5 1165.17C1759.5 1153.2 1769.2 1143.5 1781.17 1143.5L1867.83 1143.5C1879.8 1143.5 1889.5 1153.2 1889.5 1165.17L1889.5 1251.83C1889.5 1263.8 1879.8 1273.5 1867.83 1273.5L1781.17 1273.5C1769.2 1273.5 1759.5 1263.8 1759.5 1251.83Z" stroke="#000000" stroke-width="4.58333" stroke-miterlimit="8" fill="#47D45A" fill-rule="evenodd"/><path d="M1945.5 1165.17C1945.5 1153.2 1955.2 1143.5 1967.17 1143.5L2053.83 1143.5C2065.8 1143.5 2075.5 1153.2 2075.5 1165.17L2075.5 1251.83C2075.5 1263.8 2065.8 1273.5 2053.83 1273.5L1967.17 1273.5C1955.2 1273.5 1945.5 1263.8 1945.5 1251.83Z" stroke="#000000" stroke-width="4.58333" stroke-miterlimit="8" fill="#47D45A" fill-rule="evenodd"/><path d="M2130.5 1165.17C2130.5 1153.2 2140.2 1143.5 2152.17 1143.5L2238.83 1143.5C2250.8 1143.5 2260.5 1153.2 2260.5 1165.17L2260.5 1251.83C2260.5 1263.8 2250.8 1273.5 2238.83 1273.5L2152.17 1273.5C2140.2 1273.5 2130.5 1263.8 2130.5 1251.83Z" stroke="#000000" stroke-width="4.58333" stroke-miterlimit="8" fill="#47D45A" fill-rule="evenodd"/><path d="M2316.5 1165.17C2316.5 1153.2 2326.2 1143.5 2338.17 1143.5L2424.83 1143.5C2436.8 1143.5 2446.5 1153.2 2446.5 1165.17L2446.5 1251.83C2446.5 1263.8 2436.8 1273.5 2424.83 1273.5L2338.17 1273.5C2326.2 1273.5 2316.5 1263.8 2316.5 1251.83Z" stroke="#000000" stroke-width="4.58333" stroke-miterlimit="8" fill="#47D45A" fill-rule="evenodd"/><path d="M2502.5 1165C2502.5 1153.13 2512.13 1143.5 2524 1143.5L2610 1143.5C2621.87 1143.5 2631.5 1153.13 2631.5 1165L2631.5 1252C2631.5 1263.87 2621.87 1273.5 2610 1273.5L2524 1273.5C2512.13 1273.5 2502.5 1263.87 2502.5 1252Z" stroke="#000000" stroke-width="4.58333" stroke-miterlimit="8" fill="#47D45A" fill-rule="evenodd"/><path d="M1137.5 1724.17C1137.5 1705.02 1153.02 1689.5 1172.17 1689.5L2661.83 1689.5C2680.98 1689.5 2696.5 1705.02 2696.5 1724.17L2696.5 1862.83C2696.5 1881.98 2680.98 1897.5 2661.83 1897.5L1172.17 1897.5C1153.02 1897.5 1137.5 1881.98 1137.5 1862.83Z" stroke="#000000" stroke-width="4.58333" stroke-miterlimit="8" fill="#C2F1C8" fill-rule="evenodd"/><path d="M1202.5 1750.17C1202.5 1738.2 1212.2 1728.5 1224.17 1728.5L1310.83 1728.5C1322.8 1728.5 1332.5 1738.2 1332.5 1750.17L1332.5 1836.83C1332.5 1848.8 1322.8 1858.5 1310.83 1858.5L1224.17 1858.5C1212.2 1858.5 1202.5 1848.8 1202.5 1836.83Z" stroke="#000000" stroke-width="4.58333" stroke-miterlimit="8" fill="#47D45A" fill-rule="evenodd"/><path d="M1574.5 1750C1574.5 1738.13 1584.13 1728.5 1596 1728.5L1682 1728.5C1693.87 1728.5 1703.5 1738.13 1703.5 1750L1703.5 1837C1703.5 1848.87 1693.87 1858.5 1682 1858.5L1596 1858.5C1584.13 1858.5 1574.5 1848.87 1574.5 1837Z" stroke="#000000" stroke-width="4.58333" stroke-miterlimit="8" fill="#47D45A" fill-rule="evenodd"/><path d="M1388.5 1750.17C1388.5 1738.2 1398.2 1728.5 1410.17 1728.5L1496.83 1728.5C1508.8 1728.5 1518.5 1738.2 1518.5 1750.17L1518.5 1836.83C1518.5 1848.8 1508.8 1858.5 1496.83 1858.5L1410.17 1858.5C1398.2 1858.5 1388.5 1848.8 1388.5 1836.83Z" stroke="#000000" stroke-width="4.58333" stroke-miterlimit="8" fill="#47D45A" fill-rule="evenodd"/><path d="M1759.5 1750.17C1759.5 1738.2 1769.2 1728.5 1781.17 1728.5L1867.83 1728.5C1879.8 1728.5 1889.5 1738.2 1889.5 1750.17L1889.5 1836.83C1889.5 1848.8 1879.8 1858.5 1867.83 1858.5L1781.17 1858.5C1769.2 1858.5 1759.5 1848.8 1759.5 1836.83Z" stroke="#000000" stroke-width="4.58333" stroke-miterlimit="8" fill="#47D45A" fill-rule="evenodd"/><path d="M1945.5 1750.17C1945.5 1738.2 1955.2 1728.5 1967.17 1728.5L2053.83 1728.5C2065.8 1728.5 2075.5 1738.2 2075.5 1750.17L2075.5 1836.83C2075.5 1848.8 2065.8 1858.5 2053.83 1858.5L1967.17 1858.5C1955.2 1858.5 1945.5 1848.8 1945.5 1836.83Z" stroke="#000000" stroke-width="4.58333" stroke-miterlimit="8" fill="#47D45A" fill-rule="evenodd"/><path d="M2130.5 1750.17C2130.5 1738.2 2140.2 1728.5 2152.17 1728.5L2238.83 1728.5C2250.8 1728.5 2260.5 1738.2 2260.5 1750.17L2260.5 1836.83C2260.5 1848.8 2250.8 1858.5 2238.83 1858.5L2152.17 1858.5C2140.2 1858.5 2130.5 1848.8 2130.5 1836.83Z" stroke="#000000" stroke-width="4.58333" stroke-miterlimit="8" fill="#47D45A" fill-rule="evenodd"/><path d="M2316.5 1750.17C2316.5 1738.2 2326.2 1728.5 2338.17 1728.5L2424.83 1728.5C2436.8 1728.5 2446.5 1738.2 2446.5 1750.17L2446.5 1836.83C2446.5 1848.8 2436.8 1858.5 2424.83 1858.5L2338.17 1858.5C2326.2 1858.5 2316.5 1848.8 2316.5 1836.83Z" stroke="#000000" stroke-width="4.58333" stroke-miterlimit="8" fill="#47D45A" fill-rule="evenodd"/><path d="M2502.5 1750C2502.5 1738.13 2512.13 1728.5 2524 1728.5L2610 1728.5C2621.87 1728.5 2631.5 1738.13 2631.5 1750L2631.5 1837C2631.5 1848.87 2621.87 1858.5 2610 1858.5L2524 1858.5C2512.13 1858.5 2502.5 1848.87 2502.5 1837Z" stroke="#000000" stroke-width="4.58333" stroke-miterlimit="8" fill="#47D45A" fill-rule="evenodd"/><rect x="1137.5" y="1371.5" width="1559" height="260" stroke="#042433" stroke-width="4.58333" stroke-miterlimit="8" fill="#DCEAF7"/><rect x="1202.5" y="1436.5" width="130" height="130" stroke="#042433" stroke-width="4.58333" stroke-miterlimit="8" fill="#4E95D9"/><rect x="1388.5" y="1436.5" width="130" height="130" stroke="#042433" stroke-width="4.58333" stroke-miterlimit="8" fill="#4E95D9"/><rect x="1574.5" y="1436.5" width="129" height="130" stroke="#042433" stroke-width="4.58333" stroke-miterlimit="8" fill="#4E95D9"/><rect x="1759.5" y="1436.5" width="130" height="130" stroke="#042433" stroke-width="4.58333" stroke-miterlimit="8" fill="#4E95D9"/><rect x="1945.5" y="1436.5" width="130" height="130" stroke="#042433" stroke-width="4.58333" stroke-miterlimit="8" fill="#4E95D9"/><rect x="2130.5" y="1436.5" width="130" height="130" stroke="#042433" stroke-width="4.58333" stroke-miterlimit="8" fill="#4E95D9"/><rect x="2316.5" y="1436.5" width="130" height="130" stroke="#042433" stroke-width="4.58333" stroke-miterlimit="8" fill="#4E95D9"/><rect x="2502.5" y="1436.5" width="129" height="130" stroke="#042433" stroke-width="4.58333" stroke-miterlimit="8" fill="#4E95D9"/><path d="M1269.79 1273.5 1269.79 1412.98 1265.21 1412.98 1265.21 1273.5ZM1281.25 1408.4 1267.5 1435.9 1253.75 1408.4Z"/><path d="M1455.79 1273.5 1455.79 1412.98 1451.21 1412.98 1451.21 1273.5ZM1467.25 1408.4 1453.5 1435.9 1439.75 1408.4Z"/><path d="M1640.79 1273.5 1640.79 1412.98 1636.21 1412.98 1636.21 1273.5ZM1652.25 1408.4 1638.5 1435.9 1624.75 1408.4Z"/><path d="M2012.79 1273.5 2012.79 1412.98 2008.21 1412.98 2008.21 1273.5ZM2024.25 1408.4 2010.5 1435.9 1996.75 1408.4Z"/><path d="M1826.79 1273.5 1826.79 1412.98 1822.21 1412.98 1822.21 1273.5ZM1838.25 1408.4 1824.5 1435.9 1810.75 1408.4Z"/><path d="M2568.79 1273.5 2568.79 1412.98 2564.21 1412.98 2564.21 1273.5ZM2580.25 1408.4 2566.5 1435.9 2552.75 1408.4Z"/><path d="M2383.79 1273.5 2383.79 1412.98 2379.21 1412.98 2379.21 1273.5ZM2395.25 1408.4 2381.5 1435.9 2367.75 1408.4Z"/><path d="M2197.79 1273.5 2197.79 1412.98 2193.21 1412.98 2193.21 1273.5ZM2209.25 1408.4 2195.5 1435.9 2181.75 1408.4Z"/><path d="M1269.79 1566.5 1269.79 1705.98 1265.21 1705.98 1265.21 1566.5ZM1281.25 1701.4 1267.5 1728.9 1253.75 1701.4Z"/><path d="M1455.79 1566.5 1455.79 1705.98 1451.21 1705.98 1451.21 1566.5ZM1467.25 1701.4 1453.5 1728.9 1439.75 1701.4Z"/><path d="M1640.79 1566.5 1640.79 1705.98 1636.21 1705.98 1636.21 1566.5ZM1652.25 1701.4 1638.5 1728.9 1624.75 1701.4Z"/><path d="M2012.79 1566.5 2012.79 1705.98 2008.21 1705.98 2008.21 1566.5ZM2024.25 1701.4 2010.5 1728.9 1996.75 1701.4Z"/><path d="M1826.79 1566.5 1826.79 1705.98 1822.21 1705.98 1822.21 1566.5ZM1838.25 1701.4 1824.5 1728.9 1810.75 1701.4Z"/><path d="M2568.79 1566.5 2568.79 1705.98 2564.21 1705.98 2564.21 1566.5ZM2580.25 1701.4 2566.5 1728.9 2552.75 1701.4Z"/><path d="M2383.79 1566.5 2383.79 1705.98 2379.21 1705.98 2379.21 1566.5ZM2395.25 1701.4 2381.5 1728.9 2367.75 1701.4Z"/><path d="M2197.79 1566.5 2197.79 1705.98 2193.21 1705.98 2193.21 1566.5ZM2209.25 1701.4 2195.5 1728.9 2181.75 1701.4Z"/></g></svg>