<svg width="1956" height="1319" xmlns="http://www.w3.org/2000/svg" xmlns:xlink="http://www.w3.org/1999/xlink" xml:space="preserve" overflow="hidden"><g transform="translate(-173 -48)"><path d="M0 910 90.8361 0 1858.16 0 1949 910Z" stroke="#000000" stroke-width="4.58333" stroke-miterlimit="8" fill="#DCEAF7" fill-rule="evenodd" transform="matrix(1 0 0 -1 176.5 1184.5)"/><path d="M1085.5 1256.17C1085.5 1244.2 1095.2 1234.5 1107.17 1234.5L1193.83 1234.5C1205.8 1234.5 1215.5 1244.2 1215.5 1256.17L1215.5 1342.83C1215.5 1354.8 1205.8 1364.5 1193.83 1364.5L1107.17 1364.5C1095.2 1364.5 1085.5 1354.8 1085.5 1342.83Z" stroke="#000000" stroke-width="4.58333" stroke-miterlimit="8" fill="#47D45A" fill-rule="evenodd"/><path d="M371.5 85.1667C371.5 66.0208 387.021 50.5 406.167 50.5L1895.83 50.5C1914.98 50.5 1930.5 66.0208 1930.5 85.1667L1930.5 223.833C1930.5 242.979 1914.98 258.5 1895.83 258.5L406.167 258.5C387.021 258.5 371.5 242.979 371.5 223.833Z" stroke="#000000" stroke-width="4.58333" stroke-miterlimit="8" fill="#C2F1C8" fill-rule="evenodd"/><path d="M436.5 111.167C436.5 99.2006 446.201 89.4999 458.167 89.4999L544.833 89.4999C556.799 89.4999 566.5 99.2006 566.5 111.167L566.5 197.833C566.5 209.799 556.799 219.5 544.833 219.5L458.167 219.5C446.201 219.5 436.5 209.799 436.5 197.833Z" stroke="#000000" stroke-width="4.58333" stroke-miterlimit="8" fill="#47D45A" fill-rule="evenodd"/><path d="M807.5 111.167C807.5 99.2006 817.201 89.4999 829.167 89.4999L915.833 89.4999C927.799 89.4999 937.5 99.2006 937.5 111.167L937.5 197.833C937.5 209.799 927.799 219.5 915.833 219.5L829.167 219.5C817.201 219.5 807.5 209.799 807.5 197.833Z" stroke="#000000" stroke-width="4.58333" stroke-miterlimit="8" fill="#47D45A" fill-rule="evenodd"/><path d="M621.5 111.167C621.5 99.2006 631.201 89.4999 643.167 89.4999L729.833 89.4999C741.799 89.4999 751.5 99.2006 751.5 111.167L751.5 197.833C751.5 209.799 741.799 219.5 729.833 219.5L643.167 219.5C631.201 219.5 621.5 209.799 621.5 197.833Z" stroke="#000000" stroke-width="4.58333" stroke-miterlimit="8" fill="#47D45A" fill-rule="evenodd"/><path d="M993.5 111.167C993.5 99.2006 1003.2 89.4999 1015.17 89.4999L1101.83 89.4999C1113.8 89.4999 1123.5 99.2006 1123.5 111.167L1123.5 197.833C1123.5 209.799 1113.8 219.5 1101.83 219.5L1015.17 219.5C1003.2 219.5 993.5 209.799 993.5 197.833Z" stroke="#000000" stroke-width="4.58333" stroke-miterlimit="8" fill="#47D45A" fill-rule="evenodd"/><path d="M1178.5 111.167C1178.5 99.2006 1188.2 89.4999 1200.17 89.4999L1286.83 89.4999C1298.8 89.4999 1308.5 99.2006 1308.5 111.167L1308.5 197.833C1308.5 209.799 1298.8 219.5 1286.83 219.5L1200.17 219.5C1188.2 219.5 1178.5 209.799 1178.5 197.833Z" stroke="#000000" stroke-width="4.58333" stroke-miterlimit="8" fill="#47D45A" fill-rule="evenodd"/><path d="M1364.5 111.167C1364.5 99.2006 1374.2 89.4999 1386.17 89.4999L1472.83 89.4999C1484.8 89.4999 1494.5 99.2006 1494.5 111.167L1494.5 197.833C1494.5 209.799 1484.8 219.5 1472.83 219.5L1386.17 219.5C1374.2 219.5 1364.5 209.799 1364.5 197.833Z" stroke="#000000" stroke-width="4.58333" stroke-miterlimit="8" fill="#47D45A" fill-rule="evenodd"/><path d="M1549.5 111.167C1549.5 99.2006 1559.2 89.4999 1571.17 89.4999L1657.83 89.4999C1669.8 89.4999 1679.5 99.2006 1679.5 111.167L1679.5 197.833C1679.5 209.799 1669.8 219.5 1657.83 219.5L1571.17 219.5C1559.2 219.5 1549.5 209.799 1549.5 197.833Z" stroke="#000000" stroke-width="4.58333" stroke-miterlimit="8" fill="#47D45A" fill-rule="evenodd"/><path d="M1735.5 111.167C1735.5 99.2006 1745.2 89.4999 1757.17 89.4999L1843.83 89.4999C1855.8 89.4999 1865.5 99.2006 1865.5 111.167L1865.5 197.833C1865.5 209.799 1855.8 219.5 1843.83 219.5L1757.17 219.5C1745.2 219.5 1735.5 209.799 1735.5 197.833Z" stroke="#000000" stroke-width="4.58333" stroke-miterlimit="8" fill="#47D45A" fill-rule="evenodd"/><path d="M1811.79 219.5 1811.79 365.481 1807.21 365.481 1807.21 219.5ZM1823.25 360.898 1809.5 388.398 1795.75 360.898Z"/><path d="M700.791 219.47 702.729 365.453 698.146 365.514 696.209 219.531ZM714.125 360.718 700.742 388.398 686.628 361.083Z"/><path d="M1068.79 219.5 1068.79 365.481 1064.21 365.481 1064.21 219.5ZM1080.25 360.898 1066.5 388.398 1052.75 360.898Z"/><path d="M1440.79 219.5 1440.79 365.481 1436.21 365.481 1436.21 219.5ZM1452.25 360.898 1438.5 388.398 1424.75 360.898Z"/><rect x="608.5" y="388.5" width="130" height="130" stroke="#042433" stroke-width="4.58333" stroke-miterlimit="8" fill="#4E95D9"/><path d="M0-2.29167 86.7405-2.29167 86.7405 163.4 84.4488 161.108 145.981 161.108 145.981 165.692 82.1572 165.692 82.1572 0 84.4488 2.29167 0 2.29167ZM141.398 149.65 168.898 163.4 141.398 177.15Z" transform="matrix(1.83697e-16 1 1 -1.83697e-16 510.5 219.5)"/><path d="M0-2.29167 68.298-2.29167 68.298 369.641 66.0063 367.349 109.096 367.349 109.096 371.933 63.7147 371.933 63.7147 0 66.0063 2.29167 0 2.29167ZM104.512 355.891 132.012 369.641 104.512 383.391Z" transform="matrix(1.83697e-16 1 1 -1.83697e-16 673.5 518.5)"/><path d="M1784.31 1039.5 1784.31 1139.21 1150.5 1139.21 1152.79 1136.92 1152.79 1211.43 1148.21 1211.43 1148.21 1134.63 1782.02 1134.63 1779.73 1136.92 1779.73 1039.5ZM1164.25 1206.84 1150.5 1234.34 1136.75 1206.84Z"/><rect x="978.5" y="388.5" width="130" height="130" stroke="#042433" stroke-width="4.58333" stroke-miterlimit="8" fill="#4E95D9"/><rect x="1347.5" y="388.5" width="130" height="130" stroke="#042433" stroke-width="4.58333" stroke-miterlimit="8" fill="#4E95D9"/><rect x="1717.5" y="388.5" width="130" height="130" stroke="#042433" stroke-width="4.58333" stroke-miterlimit="8" fill="#4E95D9"/><path d="M0-2.29167 86.7406-2.29167 86.7406 170.643 84.4489 168.351 145.981 168.351 145.981 172.935 82.1572 172.935 82.1572 0 84.4489 2.29167 0 2.29167ZM141.398 156.893 168.898 170.643 141.398 184.393Z" transform="matrix(1.83697e-16 1 1 -1.83697e-16 872.5 219.5)"/><path d="M0-2.29167 86.7405-2.29167 86.7405 169.08 84.4488 166.789 145.981 166.789 145.981 171.372 82.1572 171.372 82.1572 0 84.4488 2.29167 0 2.29167ZM141.398 155.33 168.898 169.08 141.398 182.83Z" transform="matrix(1.83697e-16 1 1 -1.83697e-16 1243.5 219.5)"/><path d="M0-2.29167 86.7405-2.29167 86.7405 167.517 84.4488 165.225 145.981 165.225 145.981 169.809 82.1572 169.809 82.1572 0 84.4488 2.29167 0 2.29167ZM141.398 153.767 168.898 167.517 141.398 181.267Z" transform="matrix(1.83697e-16 1 1 -1.83697e-16 1614.5 219.5)"/><rect x="978.5" y="650.5" width="130" height="130" stroke="#042433" stroke-width="4.58333" stroke-miterlimit="8" fill="#4E95D9"/><rect x="1717.5" y="650.5" width="130" height="130" stroke="#042433" stroke-width="4.58333" stroke-miterlimit="8" fill="#4E95D9"/><path d="M0-2.29167 68.2978-2.29167 68.2978 369.64 66.0061 367.349 109.095 367.349 109.095 371.932 63.7145 371.932 63.7145 0 66.0061 2.29167 0 2.29167ZM104.512 355.89 132.012 369.64 104.512 383.39Z" transform="matrix(1.83697e-16 1 1 -1.83697e-16 1412.5 518.5)"/><path d="M1811.79 518.5 1811.79 627.595 1807.21 627.595 1807.21 518.5ZM1823.25 623.012 1809.5 650.512 1795.75 623.012Z"/><path d="M1068.79 518.5 1068.79 627.595 1064.21 627.595 1064.21 518.5ZM1080.25 623.012 1066.5 650.512 1052.75 623.012Z"/><rect x="1717.5" y="909.5" width="130" height="130" stroke="#042433" stroke-width="4.58333" stroke-miterlimit="8" fill="#4E95D9"/><path d="M1811.79 777.5 1811.79 886.596 1807.21 886.596 1807.21 777.5ZM1823.25 882.012 1809.5 909.512 1795.75 882.012Z"/><path d="M0-2.29167 67.2523-2.29167 67.2523 739.282 64.9606 736.99 107.005 736.99 107.005 741.573 62.669 741.573 62.669 0 64.9606 2.29167 0 2.29167ZM102.421 725.532 129.921 739.282 102.421 753.032Z" transform="matrix(1.83697e-16 1 1 -1.83697e-16 1043.5 780.5)"/></g></svg>