<svg width="1956" height="2359" xmlns="http://www.w3.org/2000/svg" xmlns:xlink="http://www.w3.org/1999/xlink" xml:space="preserve" overflow="hidden"><g transform="translate(-173 -48)"><path d="M0 1949 194.548 0 1754.45 0 1949 1949Z" stroke="#000000" stroke-width="4.58333" stroke-miterlimit="8" fill="#DCEAF7" fill-rule="evenodd" transform="matrix(1 0 0 -1 176.5 2223.5)"/><path d="M1085.5 2296.17C1085.5 2284.2 1095.2 2274.5 1107.17 2274.5L1193.83 2274.5C1205.8 2274.5 1215.5 2284.2 1215.5 2296.17L1215.5 2382.83C1215.5 2394.8 1205.8 2404.5 1193.83 2404.5L1107.17 2404.5C1095.2 2404.5 1085.5 2394.8 1085.5 2382.83Z" stroke="#000000" stroke-width="4.58333" stroke-miterlimit="8" fill="#47D45A" fill-rule="evenodd"/><path d="M371.5 85.1667C371.5 66.0208 387.021 50.5 406.167 50.5L1895.83 50.5C1914.98 50.5 1930.5 66.0208 1930.5 85.1667L1930.5 223.833C1930.5 242.979 1914.98 258.5 1895.83 258.5L406.167 258.5C387.021 258.5 371.5 242.979 371.5 223.833Z" stroke="#000000" stroke-width="4.58333" stroke-miterlimit="8" fill="#C2F1C8" fill-rule="evenodd"/><path d="M436.5 111.167C436.5 99.2006 446.201 89.4999 458.167 89.4999L544.833 89.4999C556.799 89.4999 566.5 99.2006 566.5 111.167L566.5 197.833C566.5 209.799 556.799 219.5 544.833 219.5L458.167 219.5C446.201 219.5 436.5 209.799 436.5 197.833Z" stroke="#000000" stroke-width="4.58333" stroke-miterlimit="8" fill="#47D45A" fill-rule="evenodd"/><path d="M807.5 111.167C807.5 99.2006 817.201 89.4999 829.167 89.4999L915.833 89.4999C927.799 89.4999 937.5 99.2006 937.5 111.167L937.5 197.833C937.5 209.799 927.799 219.5 915.833 219.5L829.167 219.5C817.201 219.5 807.5 209.799 807.5 197.833Z" stroke="#000000" stroke-width="4.58333" stroke-miterlimit="8" fill="#47D45A" fill-rule="evenodd"/><path d="M621.5 111.167C621.5 99.2006 631.201 89.4999 643.167 89.4999L729.833 89.4999C741.799 89.4999 751.5 99.2006 751.5 111.167L751.5 197.833C751.5 209.799 741.799 219.5 729.833 219.5L643.167 219.5C631.201 219.5 621.5 209.799 621.5 197.833Z" stroke="#000000" stroke-width="4.58333" stroke-miterlimit="8" fill="#47D45A" fill-rule="evenodd"/><path d="M993.5 111.167C993.5 99.2006 1003.2 89.4999 1015.17 89.4999L1101.83 89.4999C1113.8 89.4999 1123.5 99.2006 1123.5 111.167L1123.5 197.833C1123.5 209.799 1113.8 219.5 1101.83 219.5L1015.17 219.5C1003.2 219.5 993.5 209.799 993.5 197.833Z" stroke="#000000" stroke-width="4.58333" stroke-miterlimit="8" fill="#47D45A" fill-rule="evenodd"/><path d="M1178.5 111.167C1178.5 99.2006 1188.2 89.4999 1200.17 89.4999L1286.83 89.4999C1298.8 89.4999 1308.5 99.2006 1308.5 111.167L1308.5 197.833C1308.5 209.799 1298.8 219.5 1286.83 219.5L1200.17 219.5C1188.2 219.5 1178.5 209.799 1178.5 197.833Z" stroke="#000000" stroke-width="4.58333" stroke-miterlimit="8" fill="#47D45A" fill-rule="evenodd"/><path d="M1364.5 111.167C1364.5 99.2006 1374.2 89.4999 1386.17 89.4999L1472.83 89.4999C1484.8 89.4999 1494.5 99.2006 1494.5 111.167L1494.5 197.833C1494.5 209.799 1484.8 219.5 1472.83 219.5L1386.17 219.5C1374.2 219.5 1364.5 209.799 1364.5 197.833Z" stroke="#000000" stroke-width="4.58333" stroke-miterlimit="8" fill="#47D45A" fill-rule="evenodd"/><path d="M1549.5 111.167C1549.5 99.2006 1559.2 89.4999 1571.17 89.4999L1657.83 89.4999C1669.8 89.4999 1679.5 99.2006 1679.5 111.167L1679.5 197.833C1679.5 209.799 1669.8 219.5 1657.83 219.5L1571.17 219.5C1559.2 219.5 1549.5 209.799 1549.5 197.833Z" stroke="#000000" stroke-width="4.58333" stroke-miterlimit="8" fill="#47D45A" fill-rule="evenodd"/><path d="M1735.5 111.167C1735.5 99.2006 1745.2 89.4999 1757.17 89.4999L1843.83 89.4999C1855.8 89.4999 1865.5 99.2006 1865.5 111.167L1865.5 197.833C1865.5 209.799 1855.8 219.5 1843.83 219.5L1757.17 219.5C1745.2 219.5 1735.5 209.799 1735.5 197.833Z" stroke="#000000" stroke-width="4.58333" stroke-miterlimit="8" fill="#47D45A" fill-rule="evenodd"/><rect x="1347.5" y="1429.5" width="130" height="130" stroke="#042433" stroke-width="4.58333" stroke-miterlimit="8" fill="#4E95D9"/><rect x="793.5" y="650.5" width="130" height="130" stroke="#042433" stroke-width="4.58333" stroke-miterlimit="8" fill="#4E95D9"/><rect x="978.5" y="909.5" width="130" height="130" stroke="#042433" stroke-width="4.58333" stroke-miterlimit="8" fill="#4E95D9"/><rect x="1162.5" y="1169.5" width="130" height="130" stroke="#042433" stroke-width="4.58333" stroke-miterlimit="8" fill="#4E95D9"/><rect x="1532.5" y="1689.5" width="130" height="130" stroke="#042433" stroke-width="4.58333" stroke-miterlimit="8" fill="#4E95D9"/><rect x="1717.5" y="1949.5" width="130" height="130" stroke="#042433" stroke-width="4.58333" stroke-miterlimit="8" fill="#4E95D9"/><path d="M1811.79 219.5 1811.79 1926.63 1807.21 1926.63 1807.21 219.5ZM1823.25 1922.04 1809.5 1949.54 1795.75 1922.04Z"/><path d="M700.791 219.47 702.729 365.453 698.146 365.514 696.209 219.531ZM714.125 360.718 700.742 388.398 686.628 361.083Z"/><path d="M2.29167-1.91455e-06 2.29201 409.063-2.29133 409.063-2.29167 1.91455e-06ZM13.7503 404.48 0.000360892 431.98-13.7497 404.48Z" transform="matrix(-1 0 0 1 881.5 219.5)"/><path d="M1068.79 219.493 1070.96 887.251 1066.38 887.266 1064.21 219.508ZM1082.4 882.629 1068.74 910.174 1054.9 882.719Z"/><path d="M2.29167-1.7402e-06 2.29237 927.599-2.29096 927.599-2.29167 1.7402e-06ZM13.7507 923.016 0.000721785 950.516-13.7493 923.016Z" transform="matrix(-1 0 0 1 1252.5 219.5)"/><path d="M2.29167-1.36661e-06 2.29237 1187.44-2.29096 1187.44-2.29167 1.36661e-06ZM13.7507 1182.86 0.000721785 1210.36-13.7493 1182.86Z" transform="matrix(-1 0 0 1 1438.5 219.5)"/><path d="M1625.79 219.5 1625.79 1666.79 1621.21 1666.79 1621.21 219.5ZM1637.25 1662.2 1623.5 1689.7 1609.75 1662.2Z"/><rect x="608.5" y="388.5" width="130" height="130" stroke="#042433" stroke-width="4.58333" stroke-miterlimit="8" fill="#4E95D9"/><path d="M0-2.29167 86.7405-2.29167 86.7405 163.4 84.4488 161.108 145.981 161.108 145.981 165.692 82.1572 165.692 82.1572 0 84.4488 2.29167 0 2.29167ZM141.398 149.65 168.898 163.4 141.398 177.15Z" transform="matrix(1.83697e-16 1 1 -1.83697e-16 510.5 219.5)"/><path d="M0-2.29167 68.2978-2.29167 68.2978 184.821 66.0061 182.529 109.096 182.529 109.096 187.112 63.7145 187.112 63.7145 0 66.0061 2.29167 0 2.29167ZM104.512 171.071 132.012 184.821 104.512 198.571Z" transform="matrix(1.83697e-16 1 1 -1.83697e-16 673.5 518.5)"/><path d="M0-2.29167 67.2524-2.29167 67.2524 184.821 64.9607 182.529 107.005 182.529 107.005 187.112 62.6691 187.112 62.6691 0 64.9607 2.29167 0 2.29167ZM102.421 171.071 129.921 184.821 102.421 198.571Z" transform="matrix(1.83697e-16 1 1 -1.83697e-16 858.5 780.5)"/><path d="M0-2.29167 67.2524-2.29167 67.2524 184.821 64.9607 182.529 107.005 182.529 107.005 187.112 62.6691 187.112 62.6691 0 64.9607 2.29167 0 2.29167ZM102.421 171.071 129.921 184.821 102.421 198.571Z" transform="matrix(1.83697e-16 1 1 -1.83697e-16 1043.5 1039.5)"/><path d="M0-2.29167 67.2524-2.29167 67.2524 184.821 64.9607 182.529 107.005 182.529 107.005 187.112 62.6691 187.112 62.6691 0 64.9607 2.29167 0 2.29167ZM102.421 171.071 129.921 184.821 102.421 198.571Z" transform="matrix(1.83697e-16 1 1 -1.83697e-16 1227.5 1299.5)"/><path d="M0-2.29167 67.2524-2.29167 67.2524 184.821 64.9607 182.529 107.005 182.529 107.005 187.112 62.6691 187.112 62.6691 0 64.9607 2.29167 0 2.29167ZM102.421 171.071 129.921 184.821 102.421 198.571Z" transform="matrix(1.83697e-16 1 1 -1.83697e-16 1412.5 1559.5)"/><path d="M0-2.29167 67.2521-2.29167 67.2521 184.82 64.9604 182.528 107.004 182.528 107.004 187.112 62.6688 187.112 62.6688 0 64.9604 2.29167 0 2.29167ZM102.421 171.07 129.921 184.82 102.421 198.57Z" transform="matrix(1.83697e-16 1 1 -1.83697e-16 1597.5 1819.5)"/><path d="M1784.31 2079.5 1784.31 2179.21 1150.5 2179.21 1152.79 2176.92 1152.79 2251.43 1148.21 2251.43 1148.21 2174.63 1782.02 2174.63 1779.73 2176.92 1779.73 2079.5ZM1164.25 2246.84 1150.5 2274.34 1136.75 2246.84Z"/></g></svg>