<svg width="1564" height="1564" xmlns="http://www.w3.org/2000/svg" xmlns:xlink="http://www.w3.org/1999/xlink" xml:space="preserve" overflow="hidden"><g transform="translate(-610 -571)"><path d="M612.5 596.23C612.5 583.677 622.677 573.5 635.23 573.5L2148.77 573.5C2161.32 573.5 2171.5 583.677 2171.5 596.23L2171.5 2109.77C2171.5 2122.32 2161.32 2132.5 2148.77 2132.5L635.23 2132.5C622.677 2132.5 612.5 2122.32 612.5 2109.77Z" stroke="#000000" stroke-width="4.58333" stroke-miterlimit="8" fill="#C2F1C8" fill-rule="evenodd"/><path d="M1193.68 977.9 1573.9 977.9 1573.9 597.683 1768.1 597.683 1768.1 977.9 2148.32 977.9 2148.32 1172.1 1768.1 1172.1 1768.1 1552.32 1573.9 1552.32 1573.9 1172.1 1193.68 1172.1Z" stroke="#000000" stroke-width="4.58333" stroke-miterlimit="8" fill="#4E95D9" fill-rule="evenodd"/><path d="M677.5 660.167C677.5 648.201 687.201 638.5 699.167 638.5L785.833 638.5C797.799 638.5 807.5 648.201 807.5 660.167L807.5 746.833C807.5 758.799 797.799 768.5 785.833 768.5L699.167 768.5C687.201 768.5 677.5 758.799 677.5 746.833Z" stroke="#000000" stroke-width="4.58333" stroke-miterlimit="8" fill="#47D45A" fill-rule="evenodd"/><path d="M1049.5 660.167C1049.5 648.201 1059.2 638.5 1071.17 638.5L1157.83 638.5C1169.8 638.5 1179.5 648.201 1179.5 660.167L1179.5 746.833C1179.5 758.799 1169.8 768.5 1157.83 768.5L1071.17 768.5C1059.2 768.5 1049.5 758.799 1049.5 746.833Z" stroke="#000000" stroke-width="4.58333" stroke-miterlimit="8" fill="#47D45A" fill-rule="evenodd"/><path d="M863.5 660.167C863.5 648.201 873.201 638.5 885.167 638.5L971.833 638.5C983.799 638.5 993.5 648.201 993.5 660.167L993.5 746.833C993.5 758.799 983.799 768.5 971.833 768.5L885.167 768.5C873.201 768.5 863.5 758.799 863.5 746.833Z" stroke="#000000" stroke-width="4.58333" stroke-miterlimit="8" fill="#47D45A" fill-rule="evenodd"/><path d="M1234.5 660.167C1234.5 648.201 1244.2 638.5 1256.17 638.5L1342.83 638.5C1354.8 638.5 1364.5 648.201 1364.5 660.167L1364.5 746.833C1364.5 758.799 1354.8 768.5 1342.83 768.5L1256.17 768.5C1244.2 768.5 1234.5 758.799 1234.5 746.833Z" stroke="#000000" stroke-width="4.58333" stroke-miterlimit="8" fill="#47D45A" fill-rule="evenodd"/><path d="M1420.5 660.167C1420.5 648.201 1430.2 638.5 1442.17 638.5L1528.83 638.5C1540.8 638.5 1550.5 648.201 1550.5 660.167L1550.5 746.833C1550.5 758.799 1540.8 768.5 1528.83 768.5L1442.17 768.5C1430.2 768.5 1420.5 758.799 1420.5 746.833Z" stroke="#000000" stroke-width="4.58333" stroke-miterlimit="8" fill="#47D45A" fill-rule="evenodd"/><path d="M1605.5 660.167C1605.5 648.201 1615.2 638.5 1627.17 638.5L1713.83 638.5C1725.8 638.5 1735.5 648.201 1735.5 660.167L1735.5 746.833C1735.5 758.799 1725.8 768.5 1713.83 768.5L1627.17 768.5C1615.2 768.5 1605.5 758.799 1605.5 746.833Z" stroke="#000000" stroke-width="4.58333" stroke-miterlimit="8" fill="#47D45A" fill-rule="evenodd"/><path d="M1791.5 660.167C1791.5 648.201 1801.2 638.5 1813.17 638.5L1899.83 638.5C1911.8 638.5 1921.5 648.201 1921.5 660.167L1921.5 746.833C1921.5 758.799 1911.8 768.5 1899.83 768.5L1813.17 768.5C1801.2 768.5 1791.5 758.799 1791.5 746.833Z" stroke="#000000" stroke-width="4.58333" stroke-miterlimit="8" fill="#47D45A" fill-rule="evenodd"/><path d="M1977.5 660.167C1977.5 648.201 1987.2 638.5 1999.17 638.5L2085.83 638.5C2097.8 638.5 2107.5 648.201 2107.5 660.167L2107.5 746.833C2107.5 758.799 2097.8 768.5 2085.83 768.5L1999.17 768.5C1987.2 768.5 1977.5 758.799 1977.5 746.833Z" stroke="#000000" stroke-width="4.58333" stroke-miterlimit="8" fill="#47D45A" fill-rule="evenodd"/><path d="M677.5 846.167C677.5 834.201 687.201 824.5 699.167 824.5L785.833 824.5C797.799 824.5 807.5 834.201 807.5 846.167L807.5 932.833C807.5 944.799 797.799 954.5 785.833 954.5L699.167 954.5C687.201 954.5 677.5 944.799 677.5 932.833Z" stroke="#000000" stroke-width="4.58333" stroke-miterlimit="8" fill="#47D45A" fill-rule="evenodd"/><path d="M1049.5 846.167C1049.5 834.201 1059.2 824.5 1071.17 824.5L1157.83 824.5C1169.8 824.5 1179.5 834.201 1179.5 846.167L1179.5 932.833C1179.5 944.799 1169.8 954.5 1157.83 954.5L1071.17 954.5C1059.2 954.5 1049.5 944.799 1049.5 932.833Z" stroke="#000000" stroke-width="4.58333" stroke-miterlimit="8" fill="#47D45A" fill-rule="evenodd"/><path d="M863.5 846.167C863.5 834.201 873.201 824.5 885.167 824.5L971.833 824.5C983.799 824.5 993.5 834.201 993.5 846.167L993.5 932.833C993.5 944.799 983.799 954.5 971.833 954.5L885.167 954.5C873.201 954.5 863.5 944.799 863.5 932.833Z" stroke="#000000" stroke-width="4.58333" stroke-miterlimit="8" fill="#47D45A" fill-rule="evenodd"/><path d="M1234.5 846.167C1234.5 834.201 1244.2 824.5 1256.17 824.5L1342.83 824.5C1354.8 824.5 1364.5 834.201 1364.5 846.167L1364.5 932.833C1364.5 944.799 1354.8 954.5 1342.83 954.5L1256.17 954.5C1244.2 954.5 1234.5 944.799 1234.5 932.833Z" stroke="#000000" stroke-width="4.58333" stroke-miterlimit="8" fill="#47D45A" fill-rule="evenodd"/><path d="M1420.5 846.167C1420.5 834.201 1430.2 824.5 1442.17 824.5L1528.83 824.5C1540.8 824.5 1550.5 834.201 1550.5 846.167L1550.5 932.833C1550.5 944.8 1540.8 954.501 1528.83 954.501L1442.17 954.501C1430.2 954.501 1420.5 944.8 1420.5 932.833Z" stroke="#000000" stroke-width="4.58333" stroke-miterlimit="8" fill="#47D45A" fill-rule="evenodd"/><path d="M1605.5 846.167C1605.5 834.201 1615.2 824.5 1627.17 824.5L1713.83 824.5C1725.8 824.5 1735.5 834.201 1735.5 846.167L1735.5 932.833C1735.5 944.799 1725.8 954.5 1713.83 954.5L1627.17 954.5C1615.2 954.5 1605.5 944.799 1605.5 932.833Z" stroke="#000000" stroke-width="4.58333" stroke-miterlimit="8" fill="#47D45A" fill-rule="evenodd"/><path d="M1791.5 846.167C1791.5 834.201 1801.2 824.5 1813.17 824.5L1899.83 824.5C1911.8 824.5 1921.5 834.201 1921.5 846.167L1921.5 932.833C1921.5 944.799 1911.8 954.5 1899.83 954.5L1813.17 954.5C1801.2 954.5 1791.5 944.799 1791.5 932.833Z" stroke="#000000" stroke-width="4.58333" stroke-miterlimit="8" fill="#47D45A" fill-rule="evenodd"/><path d="M1977.5 846.167C1977.5 834.201 1987.2 824.5 1999.17 824.5L2085.83 824.5C2097.8 824.5 2107.5 834.201 2107.5 846.167L2107.5 932.833C2107.5 944.799 2097.8 954.5 2085.83 954.5L1999.17 954.5C1987.2 954.5 1977.5 944.799 1977.5 932.833Z" stroke="#000000" stroke-width="4.58333" stroke-miterlimit="8" fill="#47D45A" fill-rule="evenodd"/><path d="M677.5 1032C677.5 1020.13 687.126 1010.5 699 1010.5L786 1010.5C797.874 1010.5 807.5 1020.13 807.5 1032L807.5 1118C807.5 1129.87 797.874 1139.5 786 1139.5L699 1139.5C687.126 1139.5 677.5 1129.87 677.5 1118Z" stroke="#000000" stroke-width="4.58333" stroke-miterlimit="8" fill="#47D45A" fill-rule="evenodd"/><path d="M1049.5 1032C1049.5 1020.13 1059.13 1010.5 1071 1010.5L1158 1010.5C1169.87 1010.5 1179.5 1020.13 1179.5 1032L1179.5 1118C1179.5 1129.87 1169.87 1139.5 1158 1139.5L1071 1139.5C1059.13 1139.5 1049.5 1129.87 1049.5 1118Z" stroke="#000000" stroke-width="4.58333" stroke-miterlimit="8" fill="#47D45A" fill-rule="evenodd"/><path d="M863.5 1032C863.5 1020.13 873.126 1010.5 885 1010.5L971.999 1010.5C983.874 1010.5 993.5 1020.13 993.5 1032L993.5 1118C993.5 1129.87 983.874 1139.5 971.999 1139.5L885 1139.5C873.126 1139.5 863.5 1129.87 863.5 1118Z" stroke="#000000" stroke-width="4.58333" stroke-miterlimit="8" fill="#47D45A" fill-rule="evenodd"/><path d="M1234.5 1032C1234.5 1020.13 1244.13 1010.5 1256 1010.5L1343 1010.5C1354.87 1010.5 1364.5 1020.13 1364.5 1032L1364.5 1118C1364.5 1129.87 1354.87 1139.5 1343 1139.5L1256 1139.5C1244.13 1139.5 1234.5 1129.87 1234.5 1118Z" stroke="#000000" stroke-width="4.58333" stroke-miterlimit="8" fill="#47D45A" fill-rule="evenodd"/><path d="M1420.5 1032C1420.5 1020.13 1430.13 1010.5 1442 1010.5L1529 1010.5C1540.87 1010.5 1550.5 1020.13 1550.5 1032L1550.5 1118C1550.5 1129.87 1540.87 1139.5 1529 1139.5L1442 1139.5C1430.13 1139.5 1420.5 1129.87 1420.5 1118Z" stroke="#000000" stroke-width="4.58333" stroke-miterlimit="8" fill="#47D45A" fill-rule="evenodd"/><path d="M1605.5 1032C1605.5 1020.13 1615.13 1010.5 1627 1010.5L1714 1010.5C1725.87 1010.5 1735.5 1020.13 1735.5 1032L1735.5 1118C1735.5 1129.87 1725.87 1139.5 1714 1139.5L1627 1139.5C1615.13 1139.5 1605.5 1129.87 1605.5 1118Z" stroke="#000000" stroke-width="4.58333" stroke-miterlimit="8" fill="#47D45A" fill-rule="evenodd"/><path d="M1791.5 1032C1791.5 1020.13 1801.13 1010.5 1813 1010.5L1900 1010.5C1911.87 1010.5 1921.5 1020.13 1921.5 1032L1921.5 1118C1921.5 1129.87 1911.87 1139.5 1900 1139.5L1813 1139.5C1801.13 1139.5 1791.5 1129.87 1791.5 1118Z" stroke="#000000" stroke-width="4.58333" stroke-miterlimit="8" fill="#47D45A" fill-rule="evenodd"/><path d="M1977.5 1032C1977.5 1020.13 1987.13 1010.5 1999 1010.5L2086 1010.5C2097.87 1010.5 2107.5 1020.13 2107.5 1032L2107.5 1118C2107.5 1129.87 2097.87 1139.5 2086 1139.5L1999 1139.5C1987.13 1139.5 1977.5 1129.87 1977.5 1118Z" stroke="#000000" stroke-width="4.58333" stroke-miterlimit="8" fill="#47D45A" fill-rule="evenodd"/><path d="M677.5 1217.17C677.5 1205.2 687.201 1195.5 699.167 1195.5L785.833 1195.5C797.799 1195.5 807.5 1205.2 807.5 1217.17L807.5 1303.83C807.5 1315.8 797.799 1325.5 785.833 1325.5L699.167 1325.5C687.201 1325.5 677.5 1315.8 677.5 1303.83Z" stroke="#000000" stroke-width="4.58333" stroke-miterlimit="8" fill="#47D45A" fill-rule="evenodd"/><path d="M1049.5 1217.17C1049.5 1205.2 1059.2 1195.5 1071.17 1195.5L1157.83 1195.5C1169.8 1195.5 1179.5 1205.2 1179.5 1217.17L1179.5 1303.83C1179.5 1315.8 1169.8 1325.5 1157.83 1325.5L1071.17 1325.5C1059.2 1325.5 1049.5 1315.8 1049.5 1303.83Z" stroke="#000000" stroke-width="4.58333" stroke-miterlimit="8" fill="#47D45A" fill-rule="evenodd"/><path d="M863.5 1217.17C863.5 1205.2 873.201 1195.5 885.167 1195.5L971.833 1195.5C983.799 1195.5 993.5 1205.2 993.5 1217.17L993.5 1303.83C993.5 1315.8 983.799 1325.5 971.833 1325.5L885.167 1325.5C873.201 1325.5 863.5 1315.8 863.5 1303.83Z" stroke="#000000" stroke-width="4.58333" stroke-miterlimit="8" fill="#47D45A" fill-rule="evenodd"/><path d="M1234.5 1217.17C1234.5 1205.2 1244.2 1195.5 1256.17 1195.5L1342.83 1195.5C1354.8 1195.5 1364.5 1205.2 1364.5 1217.17L1364.5 1303.83C1364.5 1315.8 1354.8 1325.5 1342.83 1325.5L1256.17 1325.5C1244.2 1325.5 1234.5 1315.8 1234.5 1303.83Z" stroke="#000000" stroke-width="4.58333" stroke-miterlimit="8" fill="#47D45A" fill-rule="evenodd"/><path d="M1420.5 1217.17C1420.5 1205.2 1430.2 1195.5 1442.17 1195.5L1528.83 1195.5C1540.8 1195.5 1550.5 1205.2 1550.5 1217.17L1550.5 1303.83C1550.5 1315.8 1540.8 1325.5 1528.83 1325.5L1442.17 1325.5C1430.2 1325.5 1420.5 1315.8 1420.5 1303.83Z" stroke="#000000" stroke-width="4.58333" stroke-miterlimit="8" fill="#47D45A" fill-rule="evenodd"/><path d="M1605.5 1217.17C1605.5 1205.2 1615.2 1195.5 1627.17 1195.5L1713.83 1195.5C1725.8 1195.5 1735.5 1205.2 1735.5 1217.17L1735.5 1303.83C1735.5 1315.8 1725.8 1325.5 1713.83 1325.5L1627.17 1325.5C1615.2 1325.5 1605.5 1315.8 1605.5 1303.83Z" stroke="#000000" stroke-width="4.58333" stroke-miterlimit="8" fill="#47D45A" fill-rule="evenodd"/><path d="M1791.5 1217.17C1791.5 1205.2 1801.2 1195.5 1813.17 1195.5L1899.83 1195.5C1911.8 1195.5 1921.5 1205.2 1921.5 1217.17L1921.5 1303.83C1921.5 1315.8 1911.8 1325.5 1899.83 1325.5L1813.17 1325.5C1801.2 1325.5 1791.5 1315.8 1791.5 1303.83Z" stroke="#000000" stroke-width="4.58333" stroke-miterlimit="8" fill="#47D45A" fill-rule="evenodd"/><path d="M1977.5 1217.17C1977.5 1205.2 1987.2 1195.5 1999.17 1195.5L2085.83 1195.5C2097.8 1195.5 2107.5 1205.2 2107.5 1217.17L2107.5 1303.83C2107.5 1315.8 2097.8 1325.5 2085.83 1325.5L1999.17 1325.5C1987.2 1325.5 1977.5 1315.8 1977.5 1303.83Z" stroke="#000000" stroke-width="4.58333" stroke-miterlimit="8" fill="#47D45A" fill-rule="evenodd"/><path d="M677.5 1403.17C677.5 1391.2 687.201 1381.5 699.167 1381.5L785.833 1381.5C797.799 1381.5 807.5 1391.2 807.5 1403.17L807.5 1489.83C807.5 1501.8 797.799 1511.5 785.833 1511.5L699.167 1511.5C687.201 1511.5 677.5 1501.8 677.5 1489.83Z" stroke="#000000" stroke-width="4.58333" stroke-miterlimit="8" fill="#47D45A" fill-rule="evenodd"/><path d="M1049.5 1403.17C1049.5 1391.2 1059.2 1381.5 1071.17 1381.5L1157.83 1381.5C1169.8 1381.5 1179.5 1391.2 1179.5 1403.17L1179.5 1489.83C1179.5 1501.8 1169.8 1511.5 1157.83 1511.5L1071.17 1511.5C1059.2 1511.5 1049.5 1501.8 1049.5 1489.83Z" stroke="#000000" stroke-width="4.58333" stroke-miterlimit="8" fill="#47D45A" fill-rule="evenodd"/><path d="M863.5 1403.17C863.5 1391.2 873.201 1381.5 885.167 1381.5L971.833 1381.5C983.799 1381.5 993.5 1391.2 993.5 1403.17L993.5 1489.83C993.5 1501.8 983.799 1511.5 971.833 1511.5L885.167 1511.5C873.201 1511.5 863.5 1501.8 863.5 1489.83Z" stroke="#000000" stroke-width="4.58333" stroke-miterlimit="8" fill="#47D45A" fill-rule="evenodd"/><path d="M1234.5 1403.17C1234.5 1391.2 1244.2 1381.5 1256.17 1381.5L1342.83 1381.5C1354.8 1381.5 1364.5 1391.2 1364.5 1403.17L1364.5 1489.83C1364.5 1501.8 1354.8 1511.5 1342.83 1511.5L1256.17 1511.5C1244.2 1511.5 1234.5 1501.8 1234.5 1489.83Z" stroke="#000000" stroke-width="4.58333" stroke-miterlimit="8" fill="#47D45A" fill-rule="evenodd"/><path d="M1420.5 1403.17C1420.5 1391.2 1430.2 1381.5 1442.17 1381.5L1528.83 1381.5C1540.8 1381.5 1550.5 1391.2 1550.5 1403.17L1550.5 1489.83C1550.5 1501.8 1540.8 1511.5 1528.83 1511.5L1442.17 1511.5C1430.2 1511.5 1420.5 1501.8 1420.5 1489.83Z" stroke="#000000" stroke-width="4.58333" stroke-miterlimit="8" fill="#47D45A" fill-rule="evenodd"/><path d="M1605.5 1403.17C1605.5 1391.2 1615.2 1381.5 1627.17 1381.5L1713.83 1381.5C1725.8 1381.5 1735.5 1391.2 1735.5 1403.17L1735.5 1489.83C1735.5 1501.8 1725.8 1511.5 1713.83 1511.5L1627.17 1511.5C1615.2 1511.5 1605.5 1501.8 1605.5 1489.83Z" stroke="#000000" stroke-width="4.58333" stroke-miterlimit="8" fill="#47D45A" fill-rule="evenodd"/><path d="M1791.5 1403.17C1791.5 1391.2 1801.2 1381.5 1813.17 1381.5L1899.83 1381.5C1911.8 1381.5 1921.5 1391.2 1921.5 1403.17L1921.5 1489.83C1921.5 1501.8 1911.8 1511.5 1899.83 1511.5L1813.17 1511.5C1801.2 1511.5 1791.5 1501.8 1791.5 1489.83Z" stroke="#000000" stroke-width="4.58333" stroke-miterlimit="8" fill="#47D45A" fill-rule="evenodd"/><path d="M1977.5 1403.17C1977.5 1391.2 1987.2 1381.5 1999.17 1381.5L2085.83 1381.5C2097.8 1381.5 2107.5 1391.2 2107.5 1403.17L2107.5 1489.83C2107.5 1501.8 2097.8 1511.5 2085.83 1511.5L1999.17 1511.5C1987.2 1511.5 1977.5 1501.8 1977.5 1489.83Z" stroke="#000000" stroke-width="4.58333" stroke-miterlimit="8" fill="#47D45A" fill-rule="evenodd"/><path d="M677.5 1588.17C677.5 1576.2 687.201 1566.5 699.167 1566.5L785.833 1566.5C797.799 1566.5 807.5 1576.2 807.5 1588.17L807.5 1674.83C807.5 1686.8 797.799 1696.5 785.833 1696.5L699.167 1696.5C687.201 1696.5 677.5 1686.8 677.5 1674.83Z" stroke="#000000" stroke-width="4.58333" stroke-miterlimit="8" fill="#47D45A" fill-rule="evenodd"/><path d="M1049.5 1588.17C1049.5 1576.2 1059.2 1566.5 1071.17 1566.5L1157.83 1566.5C1169.8 1566.5 1179.5 1576.2 1179.5 1588.17L1179.5 1674.83C1179.5 1686.8 1169.8 1696.5 1157.83 1696.5L1071.17 1696.5C1059.2 1696.5 1049.5 1686.8 1049.5 1674.83Z" stroke="#000000" stroke-width="4.58333" stroke-miterlimit="8" fill="#47D45A" fill-rule="evenodd"/><path d="M863.5 1588.17C863.5 1576.2 873.201 1566.5 885.167 1566.5L971.833 1566.5C983.799 1566.5 993.5 1576.2 993.5 1588.17L993.5 1674.83C993.5 1686.8 983.799 1696.5 971.833 1696.5L885.167 1696.5C873.201 1696.5 863.5 1686.8 863.5 1674.83Z" stroke="#000000" stroke-width="4.58333" stroke-miterlimit="8" fill="#47D45A" fill-rule="evenodd"/><path d="M1234.5 1588.17C1234.5 1576.2 1244.2 1566.5 1256.17 1566.5L1342.83 1566.5C1354.8 1566.5 1364.5 1576.2 1364.5 1588.17L1364.5 1674.83C1364.5 1686.8 1354.8 1696.5 1342.83 1696.5L1256.17 1696.5C1244.2 1696.5 1234.5 1686.8 1234.5 1674.83Z" stroke="#000000" stroke-width="4.58333" stroke-miterlimit="8" fill="#47D45A" fill-rule="evenodd"/><path d="M1420.5 1588.17C1420.5 1576.2 1430.2 1566.5 1442.17 1566.5L1528.83 1566.5C1540.8 1566.5 1550.5 1576.2 1550.5 1588.17L1550.5 1674.83C1550.5 1686.8 1540.8 1696.5 1528.83 1696.5L1442.17 1696.5C1430.2 1696.5 1420.5 1686.8 1420.5 1674.83Z" stroke="#000000" stroke-width="4.58333" stroke-miterlimit="8" fill="#47D45A" fill-rule="evenodd"/><path d="M1605.5 1588.17C1605.5 1576.2 1615.2 1566.5 1627.17 1566.5L1713.83 1566.5C1725.8 1566.5 1735.5 1576.2 1735.5 1588.17L1735.5 1674.83C1735.5 1686.8 1725.8 1696.5 1713.83 1696.5L1627.17 1696.5C1615.2 1696.5 1605.5 1686.8 1605.5 1674.83Z" stroke="#000000" stroke-width="4.58333" stroke-miterlimit="8" fill="#47D45A" fill-rule="evenodd"/><path d="M1791.5 1588.17C1791.5 1576.2 1801.2 1566.5 1813.17 1566.5L1899.83 1566.5C1911.8 1566.5 1921.5 1576.2 1921.5 1588.17L1921.5 1674.83C1921.5 1686.8 1911.8 1696.5 1899.83 1696.5L1813.17 1696.5C1801.2 1696.5 1791.5 1686.8 1791.5 1674.83Z" stroke="#000000" stroke-width="4.58333" stroke-miterlimit="8" fill="#47D45A" fill-rule="evenodd"/><path d="M1977.5 1588.17C1977.5 1576.2 1987.2 1566.5 1999.17 1566.5L2085.83 1566.5C2097.8 1566.5 2107.5 1576.2 2107.5 1588.17L2107.5 1674.83C2107.5 1686.8 2097.8 1696.5 2085.83 1696.5L1999.17 1696.5C1987.2 1696.5 1977.5 1686.8 1977.5 1674.83Z" stroke="#000000" stroke-width="4.58333" stroke-miterlimit="8" fill="#47D45A" fill-rule="evenodd"/><path d="M677.5 1774.17C677.5 1762.2 687.201 1752.5 699.167 1752.5L785.833 1752.5C797.799 1752.5 807.5 1762.2 807.5 1774.17L807.5 1860.83C807.5 1872.8 797.799 1882.5 785.833 1882.5L699.167 1882.5C687.201 1882.5 677.5 1872.8 677.5 1860.83Z" stroke="#000000" stroke-width="4.58333" stroke-miterlimit="8" fill="#47D45A" fill-rule="evenodd"/><path d="M1049.5 1774.17C1049.5 1762.2 1059.2 1752.5 1071.17 1752.5L1157.83 1752.5C1169.8 1752.5 1179.5 1762.2 1179.5 1774.17L1179.5 1860.83C1179.5 1872.8 1169.8 1882.5 1157.83 1882.5L1071.17 1882.5C1059.2 1882.5 1049.5 1872.8 1049.5 1860.83Z" stroke="#000000" stroke-width="4.58333" stroke-miterlimit="8" fill="#47D45A" fill-rule="evenodd"/><path d="M863.5 1774.17C863.5 1762.2 873.201 1752.5 885.167 1752.5L971.833 1752.5C983.799 1752.5 993.5 1762.2 993.5 1774.17L993.5 1860.83C993.5 1872.8 983.799 1882.5 971.833 1882.5L885.167 1882.5C873.201 1882.5 863.5 1872.8 863.5 1860.83Z" stroke="#000000" stroke-width="4.58333" stroke-miterlimit="8" fill="#47D45A" fill-rule="evenodd"/><path d="M1234.5 1774.17C1234.5 1762.2 1244.2 1752.5 1256.17 1752.5L1342.83 1752.5C1354.8 1752.5 1364.5 1762.2 1364.5 1774.17L1364.5 1860.83C1364.5 1872.8 1354.8 1882.5 1342.83 1882.5L1256.17 1882.5C1244.2 1882.5 1234.5 1872.8 1234.5 1860.83Z" stroke="#000000" stroke-width="4.58333" stroke-miterlimit="8" fill="#47D45A" fill-rule="evenodd"/><path d="M1420.5 1774.17C1420.5 1762.2 1430.2 1752.5 1442.17 1752.5L1528.83 1752.5C1540.8 1752.5 1550.5 1762.2 1550.5 1774.17L1550.5 1860.83C1550.5 1872.8 1540.8 1882.5 1528.83 1882.5L1442.17 1882.5C1430.2 1882.5 1420.5 1872.8 1420.5 1860.83Z" stroke="#000000" stroke-width="4.58333" stroke-miterlimit="8" fill="#47D45A" fill-rule="evenodd"/><path d="M1605.5 1774.17C1605.5 1762.2 1615.2 1752.5 1627.17 1752.5L1713.83 1752.5C1725.8 1752.5 1735.5 1762.2 1735.5 1774.17L1735.5 1860.83C1735.5 1872.8 1725.8 1882.5 1713.83 1882.5L1627.17 1882.5C1615.2 1882.5 1605.5 1872.8 1605.5 1860.83Z" stroke="#000000" stroke-width="4.58333" stroke-miterlimit="8" fill="#47D45A" fill-rule="evenodd"/><path d="M1791.5 1774.17C1791.5 1762.2 1801.2 1752.5 1813.17 1752.5L1899.83 1752.5C1911.8 1752.5 1921.5 1762.2 1921.5 1774.17L1921.5 1860.83C1921.5 1872.8 1911.8 1882.5 1899.83 1882.5L1813.17 1882.5C1801.2 1882.5 1791.5 1872.8 1791.5 1860.83Z" stroke="#000000" stroke-width="4.58333" stroke-miterlimit="8" fill="#47D45A" fill-rule="evenodd"/><path d="M1977.5 1774.17C1977.5 1762.2 1987.2 1752.5 1999.17 1752.5L2085.83 1752.5C2097.8 1752.5 2107.5 1762.2 2107.5 1774.17L2107.5 1860.83C2107.5 1872.8 2097.8 1882.5 2085.83 1882.5L1999.17 1882.5C1987.2 1882.5 1977.5 1872.8 1977.5 1860.83Z" stroke="#000000" stroke-width="4.58333" stroke-miterlimit="8" fill="#47D45A" fill-rule="evenodd"/><path d="M677.5 1960.17C677.5 1948.2 687.201 1938.5 699.167 1938.5L785.833 1938.5C797.799 1938.5 807.5 1948.2 807.5 1960.17L807.5 2046.83C807.5 2058.8 797.799 2068.5 785.833 2068.5L699.167 2068.5C687.201 2068.5 677.5 2058.8 677.5 2046.83Z" stroke="#000000" stroke-width="4.58333" stroke-miterlimit="8" fill="#47D45A" fill-rule="evenodd"/><path d="M1049.5 1960.17C1049.5 1948.2 1059.2 1938.5 1071.17 1938.5L1157.83 1938.5C1169.8 1938.5 1179.5 1948.2 1179.5 1960.17L1179.5 2046.83C1179.5 2058.8 1169.8 2068.5 1157.83 2068.5L1071.17 2068.5C1059.2 2068.5 1049.5 2058.8 1049.5 2046.83Z" stroke="#000000" stroke-width="4.58333" stroke-miterlimit="8" fill="#47D45A" fill-rule="evenodd"/><path d="M863.5 1960.17C863.5 1948.2 873.201 1938.5 885.167 1938.5L971.833 1938.5C983.799 1938.5 993.5 1948.2 993.5 1960.17L993.5 2046.83C993.5 2058.8 983.799 2068.5 971.833 2068.5L885.167 2068.5C873.201 2068.5 863.5 2058.8 863.5 2046.83Z" stroke="#000000" stroke-width="4.58333" stroke-miterlimit="8" fill="#47D45A" fill-rule="evenodd"/><path d="M1234.5 1960.17C1234.5 1948.2 1244.2 1938.5 1256.17 1938.5L1342.83 1938.5C1354.8 1938.5 1364.5 1948.2 1364.5 1960.17L1364.5 2046.83C1364.5 2058.8 1354.8 2068.5 1342.83 2068.5L1256.17 2068.5C1244.2 2068.5 1234.5 2058.8 1234.5 2046.83Z" stroke="#000000" stroke-width="4.58333" stroke-miterlimit="8" fill="#47D45A" fill-rule="evenodd"/><path d="M1420.5 1960.17C1420.5 1948.2 1430.2 1938.5 1442.17 1938.5L1528.83 1938.5C1540.8 1938.5 1550.5 1948.2 1550.5 1960.17L1550.5 2046.83C1550.5 2058.8 1540.8 2068.5 1528.83 2068.5L1442.17 2068.5C1430.2 2068.5 1420.5 2058.8 1420.5 2046.83Z" stroke="#000000" stroke-width="4.58333" stroke-miterlimit="8" fill="#47D45A" fill-rule="evenodd"/><path d="M1605.5 1960.17C1605.5 1948.2 1615.2 1938.5 1627.17 1938.5L1713.83 1938.5C1725.8 1938.5 1735.5 1948.2 1735.5 1960.17L1735.5 2046.83C1735.5 2058.8 1725.8 2068.5 1713.83 2068.5L1627.17 2068.5C1615.2 2068.5 1605.5 2058.8 1605.5 2046.83Z" stroke="#000000" stroke-width="4.58333" stroke-miterlimit="8" fill="#47D45A" fill-rule="evenodd"/><path d="M1791.5 1960.17C1791.5 1948.2 1801.2 1938.5 1813.17 1938.5L1899.83 1938.5C1911.8 1938.5 1921.5 1948.2 1921.5 1960.17L1921.5 2046.83C1921.5 2058.8 1911.8 2068.5 1899.83 2068.5L1813.17 2068.5C1801.2 2068.5 1791.5 2058.8 1791.5 2046.83Z" stroke="#000000" stroke-width="4.58333" stroke-miterlimit="8" fill="#47D45A" fill-rule="evenodd"/><path d="M1977.5 1960.17C1977.5 1948.2 1987.2 1938.5 1999.17 1938.5L2085.83 1938.5C2097.8 1938.5 2107.5 1948.2 2107.5 1960.17L2107.5 2046.83C2107.5 2058.8 2097.8 2068.5 2085.83 2068.5L1999.17 2068.5C1987.2 2068.5 1977.5 2058.8 1977.5 2046.83Z" stroke="#000000" stroke-width="4.58333" stroke-miterlimit="8" fill="#47D45A" fill-rule="evenodd"/><path d="M1653.79 768.5 1653.79 986.866 1649.21 986.866 1649.21 768.5ZM1665.25 982.283 1651.5 1009.78 1637.75 982.283Z"/><path d="M1692.79 954.5 1692.79 987.264 1688.21 987.264 1688.21 954.5ZM1704.25 982.681 1690.5 1010.18 1676.75 982.681Z"/><path d="M2.29167-3.4277e-06 2.29199 218.366-2.29134 218.366-2.29167 3.4277e-06ZM13.7503 213.783 0.000360892 241.283-13.7497 213.783Z" transform="matrix(1 0 0 -1 1690.5 1380.78)"/><path d="M2.29167-1.48534e-05 2.29188 32.764-2.29145 32.764-2.29167 1.48534e-05ZM13.7502 28.1806 0.000360892 55.6806-13.7498 28.1807Z" transform="matrix(1 0 0 -1 1651.5 1195.18)"/><path d="M1364.5 1092.21 1582.87 1092.21 1582.87 1096.79 1364.5 1096.79ZM1578.28 1080.75 1605.78 1094.5 1578.28 1108.25Z"/><path d="M1550.5 1053.21 1583.26 1053.21 1583.26 1057.79 1550.5 1057.79ZM1578.68 1041.75 1606.18 1055.5 1578.68 1069.25Z"/><path d="M3.42771e-06-2.29167 218.365-2.29134 218.365 2.29199-3.42771e-06 2.29167ZM213.782-13.7497 241.282 0.000360892 213.782 13.7503Z" transform="matrix(-1 0 0 1 1976.78 1055.5)"/><path d="M1.48534e-05-2.29167 32.764-2.29145 32.764 2.29188-1.48534e-05 2.29167ZM28.1807-13.7498 55.6806 0.000360892 28.1806 13.7502Z" transform="matrix(-1 0 0 1 1791.18 1094.5)"/></g></svg>