<svg width="1826" height="2436" xmlns="http://www.w3.org/2000/svg" xmlns:xlink="http://www.w3.org/1999/xlink" xml:space="preserve" overflow="hidden"><g transform="translate(-278 -20)"><path d="M334.5 2280.17C334.5 2261.02 350.021 2245.5 369.167 2245.5L1858.83 2245.5C1877.98 2245.5 1893.5 2261.02 1893.5 2280.17L1893.5 2418.83C1893.5 2437.98 1877.98 2453.5 1858.83 2453.5L369.167 2453.5C350.021 2453.5 334.5 2437.98 334.5 2418.83Z" stroke="#000000" stroke-width="4.58333" stroke-miterlimit="8" fill="#C2F1C8" fill-rule="evenodd"/><path d="M399.5 2306.17C399.5 2294.2 409.201 2284.5 421.167 2284.5L507.833 2284.5C519.799 2284.5 529.5 2294.2 529.5 2306.17L529.5 2392.83C529.5 2404.8 519.799 2414.5 507.833 2414.5L421.167 2414.5C409.201 2414.5 399.5 2404.8 399.5 2392.83Z" stroke="#000000" stroke-width="4.58333" stroke-miterlimit="8" fill="#47D45A" fill-rule="evenodd"/><path d="M770.5 2306.17C770.5 2294.2 780.201 2284.5 792.167 2284.5L878.833 2284.5C890.799 2284.5 900.5 2294.2 900.5 2306.17L900.5 2392.83C900.5 2404.8 890.799 2414.5 878.833 2414.5L792.167 2414.5C780.201 2414.5 770.5 2404.8 770.5 2392.83Z" stroke="#000000" stroke-width="4.58333" stroke-miterlimit="8" fill="#47D45A" fill-rule="evenodd"/><path d="M585.5 2306.17C585.5 2294.2 595.201 2284.5 607.167 2284.5L693.833 2284.5C705.799 2284.5 715.5 2294.2 715.5 2306.17L715.5 2392.83C715.5 2404.8 705.799 2414.5 693.833 2414.5L607.167 2414.5C595.201 2414.5 585.5 2404.8 585.5 2392.83Z" stroke="#000000" stroke-width="4.58333" stroke-miterlimit="8" fill="#47D45A" fill-rule="evenodd"/><path d="M956.5 2306.17C956.5 2294.2 966.201 2284.5 978.167 2284.5L1064.83 2284.5C1076.8 2284.5 1086.5 2294.2 1086.5 2306.17L1086.5 2392.83C1086.5 2404.8 1076.8 2414.5 1064.83 2414.5L978.167 2414.5C966.201 2414.5 956.5 2404.8 956.5 2392.83Z" stroke="#000000" stroke-width="4.58333" stroke-miterlimit="8" fill="#47D45A" fill-rule="evenodd"/><path d="M1142.5 2306C1142.5 2294.13 1152.13 2284.5 1164 2284.5L1250 2284.5C1261.87 2284.5 1271.5 2294.13 1271.5 2306L1271.5 2393C1271.5 2404.87 1261.87 2414.5 1250 2414.5L1164 2414.5C1152.13 2414.5 1142.5 2404.87 1142.5 2393Z" stroke="#000000" stroke-width="4.58333" stroke-miterlimit="8" fill="#47D45A" fill-rule="evenodd"/><path d="M1327.5 2306.17C1327.5 2294.2 1337.2 2284.5 1349.17 2284.5L1435.83 2284.5C1447.8 2284.5 1457.5 2294.2 1457.5 2306.17L1457.5 2392.83C1457.5 2404.8 1447.8 2414.5 1435.83 2414.5L1349.17 2414.5C1337.2 2414.5 1327.5 2404.8 1327.5 2392.83Z" stroke="#000000" stroke-width="4.58333" stroke-miterlimit="8" fill="#47D45A" fill-rule="evenodd"/><path d="M1513.5 2306.17C1513.5 2294.2 1523.2 2284.5 1535.17 2284.5L1621.83 2284.5C1633.8 2284.5 1643.5 2294.2 1643.5 2306.17L1643.5 2392.83C1643.5 2404.8 1633.8 2414.5 1621.83 2414.5L1535.17 2414.5C1523.2 2414.5 1513.5 2404.8 1513.5 2392.83Z" stroke="#000000" stroke-width="4.58333" stroke-miterlimit="8" fill="#47D45A" fill-rule="evenodd"/><path d="M1698.5 2306.17C1698.5 2294.2 1708.2 2284.5 1720.17 2284.5L1806.83 2284.5C1818.8 2284.5 1828.5 2294.2 1828.5 2306.17L1828.5 2392.83C1828.5 2404.8 1818.8 2414.5 1806.83 2414.5L1720.17 2414.5C1708.2 2414.5 1698.5 2404.8 1698.5 2392.83Z" stroke="#000000" stroke-width="4.58333" stroke-miterlimit="8" fill="#47D45A" fill-rule="evenodd"/><path d="M334.5 57.1666C334.5 38.0207 350.021 22.4998 369.167 22.4998L1858.83 22.4998C1877.98 22.4998 1893.5 38.0207 1893.5 57.1666L1893.5 195.833C1893.5 214.979 1877.98 230.5 1858.83 230.5L369.167 230.5C350.021 230.5 334.5 214.979 334.5 195.833Z" stroke="#000000" stroke-width="4.58333" stroke-miterlimit="8" fill="#C2F1C8" fill-rule="evenodd"/><path d="M399.5 83.1671C399.5 71.2007 409.201 61.5 421.167 61.5L507.833 61.5C519.799 61.5 529.5 71.2007 529.5 83.1671L529.5 169.833C529.5 181.799 519.799 191.5 507.833 191.5L421.167 191.5C409.201 191.5 399.5 181.799 399.5 169.833Z" stroke="#000000" stroke-width="4.58333" stroke-miterlimit="8" fill="#47D45A" fill-rule="evenodd"/><path d="M770.5 83.1672C770.5 71.2008 780.201 61.5 792.167 61.5L878.833 61.5C890.799 61.5 900.5 71.2008 900.5 83.1672L900.5 169.833C900.5 181.8 890.799 191.5 878.833 191.5L792.167 191.5C780.201 191.5 770.5 181.8 770.5 169.833Z" stroke="#000000" stroke-width="4.58333" stroke-miterlimit="8" fill="#47D45A" fill-rule="evenodd"/><path d="M585.5 83.1671C585.5 71.2007 595.201 61.5 607.167 61.5L693.833 61.5C705.799 61.5 715.5 71.2007 715.5 83.1671L715.5 169.833C715.5 181.799 705.799 191.5 693.833 191.5L607.167 191.5C595.201 191.5 585.5 181.799 585.5 169.833Z" stroke="#000000" stroke-width="4.58333" stroke-miterlimit="8" fill="#47D45A" fill-rule="evenodd"/><path d="M956.5 83.1671C956.5 71.2007 966.201 61.5 978.167 61.5L1064.83 61.5C1076.8 61.5 1086.5 71.2007 1086.5 83.1671L1086.5 169.833C1086.5 181.799 1076.8 191.5 1064.83 191.5L978.167 191.5C966.201 191.5 956.5 181.799 956.5 169.833Z" stroke="#000000" stroke-width="4.58333" stroke-miterlimit="8" fill="#47D45A" fill-rule="evenodd"/><path d="M1142.5 83.0005C1142.5 71.1261 1152.13 61.5 1164 61.5L1250 61.5C1261.87 61.5 1271.5 71.1261 1271.5 83.0005L1271.5 170C1271.5 181.874 1261.87 191.5 1250 191.5L1164 191.5C1152.13 191.5 1142.5 181.874 1142.5 170Z" stroke="#000000" stroke-width="4.58333" stroke-miterlimit="8" fill="#47D45A" fill-rule="evenodd"/><path d="M1327.5 83.1671C1327.5 71.2007 1337.2 61.5 1349.17 61.5L1435.83 61.5C1447.8 61.5 1457.5 71.2007 1457.5 83.1671L1457.5 169.833C1457.5 181.799 1447.8 191.5 1435.83 191.5L1349.17 191.5C1337.2 191.5 1327.5 181.799 1327.5 169.833Z" stroke="#000000" stroke-width="4.58333" stroke-miterlimit="8" fill="#47D45A" fill-rule="evenodd"/><path d="M1513.5 83.1671C1513.5 71.2007 1523.2 61.5 1535.17 61.5L1621.83 61.5C1633.8 61.5 1643.5 71.2007 1643.5 83.1671L1643.5 169.833C1643.5 181.799 1633.8 191.5 1621.83 191.5L1535.17 191.5C1523.2 191.5 1513.5 181.799 1513.5 169.833Z" stroke="#000000" stroke-width="4.58333" stroke-miterlimit="8" fill="#47D45A" fill-rule="evenodd"/><path d="M1698.5 83.1671C1698.5 71.2007 1708.2 61.5 1720.17 61.5L1806.83 61.5C1818.8 61.5 1828.5 71.2007 1828.5 83.1671L1828.5 169.833C1828.5 181.799 1818.8 191.5 1806.83 191.5L1720.17 191.5C1708.2 191.5 1698.5 181.799 1698.5 169.833Z" stroke="#000000" stroke-width="4.58333" stroke-miterlimit="8" fill="#47D45A" fill-rule="evenodd"/><path d="M281.5 258.5 1948.45 258.5 2100.5 1232.5 1948.45 2206.5 281.5 2206.5 433.55 1232.5Z" stroke="#000000" stroke-width="4.58333" stroke-miterlimit="8" fill="#DCEAF7" fill-rule="evenodd"/><path d="M1765.79 191.5 1765.79 1898.63 1761.21 1898.63 1761.21 191.5ZM1777.25 1894.04 1763.5 1921.54 1749.75 1894.04Z"/><path d="M652.792 191.5 652.792 337.481 648.208 337.481 648.208 191.5ZM664.25 332.898 650.5 360.398 636.75 332.898Z"/><path d="M837.792 191.5 837.792 599.414 833.209 599.414 833.208 191.5ZM849.251 594.831 835.501 622.331 821.751 594.831Z"/><path d="M1023.79 191.5 1023.79 859.257 1019.21 859.257 1019.21 191.5ZM1035.25 854.674 1021.5 882.174 1007.75 854.674Z"/><path d="M1208.79 191.5 1208.79 1119.1 1204.21 1119.1 1204.21 191.5ZM1220.25 1114.52 1206.5 1142.02 1192.75 1114.52Z"/><path d="M1394.79 191.5 1394.79 1378.94 1390.21 1378.94 1390.21 191.5ZM1406.25 1374.36 1392.5 1401.86 1378.75 1374.36Z"/><path d="M1580.79 191.5 1580.79 1638.79 1576.21 1638.79 1576.21 191.5ZM1592.25 1634.2 1578.5 1661.7 1564.75 1634.2Z"/><rect x="1327.5" y="1401.5" width="130" height="130" stroke="#042433" stroke-width="4.58333" stroke-miterlimit="8" fill="#4E95D9"/><rect x="770.5" y="621.5" width="130" height="130" stroke="#042433" stroke-width="4.58333" stroke-miterlimit="8" fill="#4E95D9"/><rect x="956.5" y="881.5" width="130" height="130" stroke="#042433" stroke-width="4.58333" stroke-miterlimit="8" fill="#4E95D9"/><rect x="1142.5" y="1141.5" width="129" height="130" stroke="#042433" stroke-width="4.58333" stroke-miterlimit="8" fill="#4E95D9"/><rect x="1513.5" y="1661.5" width="130" height="130" stroke="#042433" stroke-width="4.58333" stroke-miterlimit="8" fill="#4E95D9"/><rect x="1698.5" y="1921.5" width="130" height="130" stroke="#042433" stroke-width="4.58333" stroke-miterlimit="8" fill="#4E95D9"/><rect x="585.5" y="359.5" width="130" height="130" stroke="#042433" stroke-width="4.58333" stroke-miterlimit="8" fill="#4E95D9"/><path d="M466.792 191.5 466.792 2262.41 462.209 2262.41 462.208 191.5ZM478.25 2257.82 464.5 2285.32 450.75 2257.82Z"/><path d="M837.792 751.5 837.792 2261.65 833.209 2261.65 833.208 751.5ZM849.251 2257.07 835.501 2284.57 821.751 2257.07Z"/><path d="M652.792 489.5 652.792 2261.59 648.209 2261.59 648.208 489.5ZM664.25 2257 650.5 2284.5 636.75 2257Z"/><path d="M1023.79 1011.5 1023.79 2261.81 1019.21 2261.81 1019.21 1011.5ZM1035.25 2257.23 1021.5 2284.73 1007.75 2257.23Z"/><path d="M1208.79 1271.5 1208.79 2261.97 1204.21 2261.97 1204.21 1271.5ZM1220.25 2257.39 1206.5 2284.89 1192.75 2257.39Z"/><path d="M1394.79 1531.5 1394.79 2262.13 1390.21 2262.13 1390.21 1531.5ZM1406.25 2257.54 1392.5 2285.04 1378.75 2257.54Z"/><path d="M1580.79 1791.5 1580.79 2262.28 1576.21 2262.28 1576.21 1791.5ZM1592.25 2257.7 1578.5 2285.2 1564.75 2257.7Z"/><path d="M1765.79 2051.5 1765.79 2262.44 1761.21 2262.44 1761.21 2051.5ZM1777.25 2257.86 1763.5 2285.36 1749.75 2257.86Z"/><path d="M0-2.29167 86.7405-2.29167 86.7405 139.908 84.4488 137.616 145.981 137.616 145.981 142.199 82.1572 142.199 82.1572 0 84.4488 2.29167 0 2.29167ZM141.398 126.158 168.898 139.908 141.398 153.658Z" transform="matrix(1.83697e-16 1 1 -1.83697e-16 464.5 191.5)"/><path d="M0-2.29167 68.2978-2.29167 68.2978 139.908 66.0061 137.616 109.096 137.616 109.096 142.199 63.7145 142.199 63.7145 0 66.0061 2.29167 0 2.29167ZM104.512 126.158 132.012 139.908 104.512 153.658Z" transform="matrix(1.83697e-16 1 1 -1.83697e-16 650.5 489.5)"/><path d="M0-2.29167 67.2523-2.29167 67.2523 139.908 64.9606 137.616 107.005 137.616 107.005 142.199 62.669 142.199 62.669 0 64.9606 2.29167 0 2.29167ZM102.421 126.158 129.921 139.908 102.421 153.658Z" transform="matrix(1.83697e-16 1 1 -1.83697e-16 835.5 751.5)"/><path d="M0-2.29167 67.2523-2.29167 67.2523 139.908 64.9606 137.616 107.005 137.616 107.005 142.199 62.669 142.199 62.669 0 64.9606 2.29167 0 2.29167ZM102.421 126.158 129.921 139.908 102.421 153.658Z" transform="matrix(1.83697e-16 1 1 -1.83697e-16 1021.5 1011.5)"/><path d="M0-2.29167 67.2523-2.29167 67.2523 139.908 64.9606 137.616 107.005 137.616 107.005 142.199 62.669 142.199 62.669 0 64.9606 2.29167 0 2.29167ZM102.421 126.158 129.921 139.908 102.421 153.658Z" transform="matrix(1.83697e-16 1 1 -1.83697e-16 1206.5 1271.5)"/><path d="M0-2.29167 67.2523-2.29167 67.2523 139.908 64.9606 137.616 107.005 137.616 107.005 142.199 62.669 142.199 62.669 0 64.9606 2.29167 0 2.29167ZM102.421 126.158 129.921 139.908 102.421 153.658Z" transform="matrix(1.83697e-16 1 1 -1.83697e-16 1392.5 1531.5)"/><path d="M0-2.29167 67.252-2.29167 67.252 139.907 64.9603 137.615 107.004 137.615 107.004 142.198 62.6687 142.198 62.6687 0 64.9603 2.29167 0 2.29167ZM102.421 126.157 129.921 139.907 102.421 153.657Z" transform="matrix(1.83697e-16 1 1 -1.83697e-16 1578.5 1791.5)"/><path d="M451 275C451 267.82 456.82 262 464 262 471.18 262 477 267.82 477 275 477 282.18 471.18 288 464 288 456.82 288 451 282.18 451 275Z" fill-rule="evenodd"/><path d="M637 554C637 546.82 642.82 541 650 541 657.18 541 663 546.82 663 554 663 561.18 657.18 567 650 567 642.82 567 637 561.18 637 554Z" fill-rule="evenodd"/><path d="M822 816C822 808.82 827.82 803 835 803 842.18 803 848 808.82 848 816 848 823.18 842.18 829 835 829 827.82 829 822 823.18 822 816Z" fill-rule="evenodd"/><path d="M1010 1076C1010 1068.82 1015.82 1063 1023 1063 1030.18 1063 1036 1068.82 1036 1076 1036 1083.18 1030.18 1089 1023 1089 1015.82 1089 1010 1083.18 1010 1076Z" fill-rule="evenodd"/><path d="M1196 1336C1196 1328.82 1201.82 1323 1209 1323 1216.18 1323 1222 1328.82 1222 1336 1222 1343.18 1216.18 1349 1209 1349 1201.82 1349 1196 1343.18 1196 1336Z" fill-rule="evenodd"/><path d="M1379 1596C1379 1588.82 1384.82 1583 1392 1583 1399.18 1583 1405 1588.82 1405 1596 1405 1603.18 1399.18 1609 1392 1609 1384.82 1609 1379 1603.18 1379 1596Z" fill-rule="evenodd"/><path d="M1565 1856C1565 1848.82 1570.82 1843 1578 1843 1585.18 1843 1591 1848.82 1591 1856 1591 1863.18 1585.18 1869 1578 1869 1570.82 1869 1565 1863.18 1565 1856Z" fill-rule="evenodd"/></g></svg>