<svg width="1826" height="1854" xmlns="http://www.w3.org/2000/svg" xmlns:xlink="http://www.w3.org/1999/xlink" xml:space="preserve" overflow="hidden"><g transform="translate(-278 -20)"><path d="M281.5 258.5 1985.4 258.5 2100.5 947.001 1985.4 1635.5 281.5 1635.5 396.604 947.001Z" stroke="#000000" stroke-width="4.58333" stroke-miterlimit="8" fill="#DCEAF7" fill-rule="evenodd"/><path d="M334.5 1698.17C334.5 1679.02 350.021 1663.5 369.167 1663.5L1858.83 1663.5C1877.98 1663.5 1893.5 1679.02 1893.5 1698.17L1893.5 1836.83C1893.5 1855.98 1877.98 1871.5 1858.83 1871.5L369.167 1871.5C350.021 1871.5 334.5 1855.98 334.5 1836.83Z" stroke="#000000" stroke-width="4.58333" stroke-miterlimit="8" fill="#C2F1C8" fill-rule="evenodd"/><path d="M399.5 1724.17C399.5 1712.2 409.201 1702.5 421.167 1702.5L507.833 1702.5C519.799 1702.5 529.5 1712.2 529.5 1724.17L529.5 1810.83C529.5 1822.8 519.799 1832.5 507.833 1832.5L421.167 1832.5C409.201 1832.5 399.5 1822.8 399.5 1810.83Z" stroke="#000000" stroke-width="4.58333" stroke-miterlimit="8" fill="#47D45A" fill-rule="evenodd"/><path d="M770.5 1724.17C770.5 1712.2 780.201 1702.5 792.167 1702.5L878.833 1702.5C890.799 1702.5 900.5 1712.2 900.5 1724.17L900.5 1810.83C900.5 1822.8 890.799 1832.5 878.833 1832.5L792.167 1832.5C780.201 1832.5 770.5 1822.8 770.5 1810.83Z" stroke="#000000" stroke-width="4.58333" stroke-miterlimit="8" fill="#47D45A" fill-rule="evenodd"/><path d="M585.5 1724.17C585.5 1712.2 595.201 1702.5 607.167 1702.5L693.833 1702.5C705.799 1702.5 715.5 1712.2 715.5 1724.17L715.5 1810.83C715.5 1822.8 705.799 1832.5 693.833 1832.5L607.167 1832.5C595.201 1832.5 585.5 1822.8 585.5 1810.83Z" stroke="#000000" stroke-width="4.58333" stroke-miterlimit="8" fill="#47D45A" fill-rule="evenodd"/><path d="M956.5 1724.17C956.5 1712.2 966.201 1702.5 978.167 1702.5L1064.83 1702.5C1076.8 1702.5 1086.5 1712.2 1086.5 1724.17L1086.5 1810.83C1086.5 1822.8 1076.8 1832.5 1064.83 1832.5L978.167 1832.5C966.201 1832.5 956.5 1822.8 956.5 1810.83Z" stroke="#000000" stroke-width="4.58333" stroke-miterlimit="8" fill="#47D45A" fill-rule="evenodd"/><path d="M1142.5 1724C1142.5 1712.13 1152.13 1702.5 1164 1702.5L1250 1702.5C1261.87 1702.5 1271.5 1712.13 1271.5 1724L1271.5 1811C1271.5 1822.87 1261.87 1832.5 1250 1832.5L1164 1832.5C1152.13 1832.5 1142.5 1822.87 1142.5 1811Z" stroke="#000000" stroke-width="4.58333" stroke-miterlimit="8" fill="#47D45A" fill-rule="evenodd"/><path d="M1327.5 1724.17C1327.5 1712.2 1337.2 1702.5 1349.17 1702.5L1435.83 1702.5C1447.8 1702.5 1457.5 1712.2 1457.5 1724.17L1457.5 1810.83C1457.5 1822.8 1447.8 1832.5 1435.83 1832.5L1349.17 1832.5C1337.2 1832.5 1327.5 1822.8 1327.5 1810.83Z" stroke="#000000" stroke-width="4.58333" stroke-miterlimit="8" fill="#47D45A" fill-rule="evenodd"/><path d="M1513.5 1724.17C1513.5 1712.2 1523.2 1702.5 1535.17 1702.5L1621.83 1702.5C1633.8 1702.5 1643.5 1712.2 1643.5 1724.17L1643.5 1810.83C1643.5 1822.8 1633.8 1832.5 1621.83 1832.5L1535.17 1832.5C1523.2 1832.5 1513.5 1822.8 1513.5 1810.83Z" stroke="#000000" stroke-width="4.58333" stroke-miterlimit="8" fill="#47D45A" fill-rule="evenodd"/><path d="M1698.5 1724.17C1698.5 1712.2 1708.2 1702.5 1720.17 1702.5L1806.83 1702.5C1818.8 1702.5 1828.5 1712.2 1828.5 1724.17L1828.5 1810.83C1828.5 1822.8 1818.8 1832.5 1806.83 1832.5L1720.17 1832.5C1708.2 1832.5 1698.5 1822.8 1698.5 1810.83Z" stroke="#000000" stroke-width="4.58333" stroke-miterlimit="8" fill="#47D45A" fill-rule="evenodd"/><path d="M334.5 57.1666C334.5 38.0207 350.021 22.4998 369.167 22.4998L1858.83 22.4998C1877.98 22.4998 1893.5 38.0207 1893.5 57.1666L1893.5 195.833C1893.5 214.979 1877.98 230.5 1858.83 230.5L369.167 230.5C350.021 230.5 334.5 214.979 334.5 195.833Z" stroke="#000000" stroke-width="4.58333" stroke-miterlimit="8" fill="#C2F1C8" fill-rule="evenodd"/><path d="M399.5 83.1671C399.5 71.2007 409.201 61.5 421.167 61.5L507.833 61.5C519.799 61.5 529.5 71.2007 529.5 83.1671L529.5 169.833C529.5 181.799 519.799 191.5 507.833 191.5L421.167 191.5C409.201 191.5 399.5 181.799 399.5 169.833Z" stroke="#000000" stroke-width="4.58333" stroke-miterlimit="8" fill="#47D45A" fill-rule="evenodd"/><path d="M770.5 83.1672C770.5 71.2008 780.201 61.5 792.167 61.5L878.833 61.5C890.799 61.5 900.5 71.2008 900.5 83.1672L900.5 169.833C900.5 181.8 890.799 191.5 878.833 191.5L792.167 191.5C780.201 191.5 770.5 181.8 770.5 169.833Z" stroke="#000000" stroke-width="4.58333" stroke-miterlimit="8" fill="#47D45A" fill-rule="evenodd"/><path d="M585.5 83.1671C585.5 71.2007 595.201 61.5 607.167 61.5L693.833 61.5C705.799 61.5 715.5 71.2007 715.5 83.1671L715.5 169.833C715.5 181.799 705.799 191.5 693.833 191.5L607.167 191.5C595.201 191.5 585.5 181.799 585.5 169.833Z" stroke="#000000" stroke-width="4.58333" stroke-miterlimit="8" fill="#47D45A" fill-rule="evenodd"/><path d="M956.5 83.1671C956.5 71.2007 966.201 61.5 978.167 61.5L1064.83 61.5C1076.8 61.5 1086.5 71.2007 1086.5 83.1671L1086.5 169.833C1086.5 181.799 1076.8 191.5 1064.83 191.5L978.167 191.5C966.201 191.5 956.5 181.799 956.5 169.833Z" stroke="#000000" stroke-width="4.58333" stroke-miterlimit="8" fill="#47D45A" fill-rule="evenodd"/><path d="M1142.5 83.0005C1142.5 71.1261 1152.13 61.5 1164 61.5L1250 61.5C1261.87 61.5 1271.5 71.1261 1271.5 83.0005L1271.5 170C1271.5 181.874 1261.87 191.5 1250 191.5L1164 191.5C1152.13 191.5 1142.5 181.874 1142.5 170Z" stroke="#000000" stroke-width="4.58333" stroke-miterlimit="8" fill="#47D45A" fill-rule="evenodd"/><path d="M1327.5 83.1671C1327.5 71.2007 1337.2 61.5 1349.17 61.5L1435.83 61.5C1447.8 61.5 1457.5 71.2007 1457.5 83.1671L1457.5 169.833C1457.5 181.799 1447.8 191.5 1435.83 191.5L1349.17 191.5C1337.2 191.5 1327.5 181.799 1327.5 169.833Z" stroke="#000000" stroke-width="4.58333" stroke-miterlimit="8" fill="#47D45A" fill-rule="evenodd"/><path d="M1513.5 83.1671C1513.5 71.2007 1523.2 61.5 1535.17 61.5L1621.83 61.5C1633.8 61.5 1643.5 71.2007 1643.5 83.1671L1643.5 169.833C1643.5 181.799 1633.8 191.5 1621.83 191.5L1535.17 191.5C1523.2 191.5 1513.5 181.799 1513.5 169.833Z" stroke="#000000" stroke-width="4.58333" stroke-miterlimit="8" fill="#47D45A" fill-rule="evenodd"/><path d="M1698.5 83.1671C1698.5 71.2007 1708.2 61.5 1720.17 61.5L1806.83 61.5C1818.8 61.5 1828.5 71.2007 1828.5 83.1671L1828.5 169.833C1828.5 181.799 1818.8 191.5 1806.83 191.5L1720.17 191.5C1708.2 191.5 1698.5 181.799 1698.5 169.833Z" stroke="#000000" stroke-width="4.58333" stroke-miterlimit="8" fill="#47D45A" fill-rule="evenodd"/><rect x="1513.5" y="1401.5" width="130" height="130" stroke="#042433" stroke-width="4.58333" stroke-miterlimit="8" fill="#4E95D9"/><rect x="956.5" y="621.5" width="130" height="130" stroke="#042433" stroke-width="4.58333" stroke-miterlimit="8" fill="#4E95D9"/><rect x="1327.5" y="1141.5" width="130" height="130" stroke="#042433" stroke-width="4.58333" stroke-miterlimit="8" fill="#4E95D9"/><path d="M1765.79 191.5 1765.79 337.481 1761.21 337.481 1761.21 191.5ZM1777.25 332.898 1763.5 360.398 1749.75 332.898Z"/><path d="M652.792 191.5 652.792 337.481 648.208 337.481 648.208 191.5ZM664.25 332.898 650.5 360.398 636.75 332.898Z"/><path d="M1394.79 191.5 1394.79 337.481 1390.21 337.481 1390.21 191.5ZM1406.25 332.898 1392.5 360.398 1378.75 332.898Z"/><path d="M1588.79 191.5 1588.79 1378.94 1584.21 1378.94 1584.21 191.5ZM1600.25 1374.36 1586.5 1401.86 1572.75 1374.36Z"/><rect x="585.5" y="359.5" width="130" height="130" stroke="#042433" stroke-width="4.58333" stroke-miterlimit="8" fill="#4E95D9"/><path d="M0-2.29167 86.7405-2.29167 86.7405 141.948 84.4488 139.656 145.981 139.656 145.981 144.24 82.1572 144.24 82.1572 0 84.4488 2.29167 0 2.29167ZM141.398 128.198 168.898 141.948 141.398 155.698Z" transform="matrix(1.83697e-16 1 1 -1.83697e-16 464.5 191.5)"/><path d="M0-2.29167 68.2978-2.29167 68.2978 329.599 66.0061 327.307 109.096 327.307 109.096 331.891 63.7145 331.891 63.7145 0 66.0061 2.29167 0 2.29167ZM104.512 315.849 132.012 329.599 104.512 343.349Z" transform="matrix(1.83697e-16 1 1 -1.83697e-16 650.5 489.5)"/><path d="M0-2.29167 67.2523-2.29167 67.2523 700.18 64.9606 697.889 107.005 697.889 107.005 702.472 62.669 702.472 62.669 0 64.9606 2.29167 0 2.29167ZM102.421 686.43 129.921 700.18 102.421 713.93Z" transform="matrix(1.83697e-16 1 1 -1.83697e-16 1021.5 751.5)"/><path d="M0-2.29167 197.173-2.29167 197.173 329.918 194.882 327.626 366.846 327.626 366.846 332.209 192.59 332.209 192.59 0 194.882 2.29167 0 2.29167ZM362.263 316.168 389.763 329.918 362.263 343.668Z" transform="matrix(1.83697e-16 1 1 -1.83697e-16 1021.5 751.5)"/><path d="M0-2.29167 67.2523-2.29167 67.2523 152.603 64.9606 150.311 107.005 150.311 107.005 154.894 62.669 154.894 62.669 0 64.9606 2.29167 0 2.29167ZM102.421 138.853 129.921 152.603 102.421 166.353Z" transform="matrix(1.83697e-16 1 1 -1.83697e-16 1392.5 1271.5)"/><path d="M466.792 191.5 466.792 1680.38 462.209 1680.38 462.208 191.5ZM478.25 1675.8 464.5 1703.3 450.75 1675.8Z"/><path d="M837.792 1531.5 837.792 1680.1 833.209 1680.1 833.208 1531.5ZM849.25 1675.52 835.501 1703.02 821.75 1675.52Z"/><path d="M652.792 492.5 652.792 1680.12 648.209 1680.12 648.208 492.5ZM664.25 1675.53 650.5 1703.03 636.75 1675.53Z"/><path d="M1023.79 751.5 1023.79 1679.63 1019.21 1679.63 1019.21 751.5ZM1035.25 1675.04 1021.5 1702.54 1007.75 1675.04Z"/><path d="M1208.79 949.5 1208.79 1680.13 1204.21 1680.13 1204.21 949.5ZM1220.25 1675.54 1206.5 1703.04 1192.75 1675.54Z"/><path d="M1394.79 1271.5 1394.79 1679.94 1390.21 1679.94 1390.21 1271.5ZM1406.25 1675.36 1392.5 1702.86 1378.75 1675.36Z"/><path d="M1580.79 1531.5 1580.79 1680.1 1576.21 1680.1 1576.21 1531.5ZM1592.25 1675.52 1578.5 1703.02 1564.75 1675.52Z"/><rect x="956.5" y="359.5" width="130" height="130" stroke="#042433" stroke-width="4.58333" stroke-miterlimit="8" fill="#4E95D9"/><rect x="1327.5" y="359.5" width="130" height="130" stroke="#042433" stroke-width="4.58333" stroke-miterlimit="8" fill="#4E95D9"/><rect x="1698.5" y="359.5" width="130" height="130" stroke="#042433" stroke-width="4.58333" stroke-miterlimit="8" fill="#4E95D9"/><path d="M0-2.29167 86.7405-2.29167 86.7405 140.329 84.4488 138.037 145.981 138.037 145.981 142.62 82.1572 142.62 82.1572 0 84.4488 2.29167 0 2.29167ZM141.398 126.579 168.898 140.329 141.398 154.079Z" transform="matrix(1.83697e-16 1 1 -1.83697e-16 835.5 191.5)"/><path d="M0-2.29167 87.7858-2.29167 87.7858 144.316 85.4941 142.025 148.072 142.025 148.072 146.608 83.2025 146.608 83.2025 0 85.4941 2.29167 0 2.29167ZM143.488 130.566 170.988 144.316 143.488 158.066Z" transform="matrix(1.83697e-16 1 1 -1.83697e-16 1206.5 191.5)"/><path d="M0-2.29167 86.7412-2.29167 86.7412 131.807 84.4495 129.515 145.982 129.515 145.982 134.099 82.1579 134.099 82.1579 0 84.4495 2.29167 0 2.29167ZM141.399 118.057 168.899 131.807 141.399 145.557Z" transform="matrix(1.83697e-16 1 1 -1.83697e-16 1586.5 191.5)"/><path d="M1023.79 191.5 1023.79 337.481 1019.21 337.481 1019.21 191.5ZM1035.25 332.898 1021.5 360.398 1007.75 332.898Z"/><rect x="1698.5" y="621.5" width="130" height="130" stroke="#042433" stroke-width="4.58333" stroke-miterlimit="8" fill="#4E95D9"/><path d="M0-2.29167 68.298-2.29167 68.298 332.498 66.0063 330.206 109.096 330.206 109.096 334.79 63.7146 334.79 63.7146 0 66.0063 2.29167 0 2.29167ZM104.512 318.748 132.012 332.498 104.512 346.248Z" transform="matrix(1.83697e-16 1 1 -1.83697e-16 1392.5 489.5)"/><path d="M1023.79 489.5 1023.79 598.596 1019.21 598.596 1019.21 489.5ZM1035.25 594.012 1021.5 621.512 1007.75 594.012Z"/><rect x="1698.5" y="881.5" width="130" height="130" stroke="#042433" stroke-width="4.58333" stroke-miterlimit="8" fill="#4E95D9"/><path d="M1774.79 492.5 1774.79 599.151 1770.21 599.151 1770.21 492.5ZM1786.25 594.568 1772.5 622.068 1758.75 594.568Z"/><path d="M1394.79 489.5 1394.79 1118.28 1390.21 1118.28 1390.21 489.5ZM1406.25 1113.7 1392.5 1141.2 1378.75 1113.7Z"/><rect x="770.5" y="1401.5" width="130" height="130" stroke="#042433" stroke-width="4.58333" stroke-miterlimit="8" fill="#4E95D9"/><rect x="1142.5" y="1401.5" width="129" height="130" stroke="#042433" stroke-width="4.58333" stroke-miterlimit="8" fill="#4E95D9"/><path d="M0-2.29167 458.062-2.29167 458.062 145.401 455.77 143.11 888.624 143.11 888.624 147.693 453.478 147.693 453.478 0 455.77 2.29167 0 2.29167ZM884.04 131.651 911.54 145.401 884.04 159.151Z" transform="matrix(1.83697e-16 1 1 -1.83697e-16 650.5 489.5)"/><path d="M837.792 191.5 837.792 1378.94 833.209 1378.94 833.208 191.5ZM849.251 1374.36 835.501 1401.86 821.751 1374.36Z"/><path d="M1765.79 751.5 1765.79 858.505 1761.21 858.505 1761.21 751.5ZM1777.25 853.921 1763.5 881.421 1749.75 853.921Z"/><path d="M1208.79 191.5 1208.79 1378.94 1204.21 1378.94 1204.21 191.5ZM1220.25 1374.36 1206.5 1401.86 1192.75 1374.36Z"/><path d="M0-2.29167 327.095-2.29167 327.095 140.513 324.803 138.221 626.69 138.221 626.69 142.805 322.511 142.805 322.511 0 324.803 2.29167 0 2.29167ZM622.106 126.763 649.606 140.513 622.106 154.263Z" transform="matrix(1.83697e-16 1 1 -1.83697e-16 1021.5 751.5)"/><path d="M1765.79 1011.5 1765.79 1679.79 1761.21 1679.79 1761.21 1011.5ZM1777.25 1675.2 1763.5 1702.7 1749.75 1675.2Z"/><path d="M639 555C639 547.82 644.82 542 652 542 659.18 542 665 547.82 665 555 665 562.18 659.18 568 652 568 644.82 568 639 562.18 639 555Z" fill-rule="evenodd"/><path d="M451 275C451 267.82 456.82 262 464 262 471.18 262 477 267.82 477 275 477 282.18 471.18 288 464 288 456.82 288 451 282.18 451 275Z" fill-rule="evenodd"/><path d="M637 945C637 937.82 642.82 932 650 932 657.18 932 663 937.82 663 945 663 952.18 657.18 958 650 958 642.82 958 637 952.18 637 945Z" fill-rule="evenodd"/><path d="M822 275C822 267.82 827.82 262 835 262 842.18 262 848 267.82 848 275 848 282.18 842.18 288 835 288 827.82 288 822 282.18 822 275Z" fill-rule="evenodd"/><path d="M1193 275C1193 267.82 1198.82 262 1206 262 1213.18 262 1219 267.82 1219 275 1219 282.18 1213.18 288 1206 288 1198.82 288 1193 282.18 1193 275Z" fill-rule="evenodd"/><path d="M1573 275C1573 267.82 1578.82 262 1586 262 1593.18 262 1599 267.82 1599 275 1599 282.18 1593.18 288 1586 288 1578.82 288 1573 282.18 1573 275Z" fill-rule="evenodd"/><path d="M1379 555C1379 547.82 1384.82 542 1392 542 1399.18 542 1405 547.82 1405 555 1405 562.18 1399.18 568 1392 568 1384.82 568 1379 562.18 1379 555Z" fill-rule="evenodd"/><path d="M1007 817C1007 809.82 1012.82 804 1020 804 1027.18 804 1033 809.82 1033 817 1033 824.18 1027.18 830 1020 830 1012.82 830 1007 824.18 1007 817Z" fill-rule="evenodd"/><path d="M1007 948C1007 940.82 1012.82 935 1020 935 1027.18 935 1033 940.82 1033 948 1033 955.18 1027.18 961 1020 961 1012.82 961 1007 955.18 1007 948Z" fill-rule="evenodd"/><path d="M1007 1072C1007 1064.82 1012.82 1059 1020 1059 1027.18 1059 1033 1064.82 1033 1072 1033 1079.18 1027.18 1085 1020 1085 1012.82 1085 1007 1079.18 1007 1072Z" fill-rule="evenodd"/><path d="M1379 1339C1379 1331.82 1384.82 1326 1392 1326 1399.18 1326 1405 1331.82 1405 1339 1405 1346.18 1399.18 1352 1392 1352 1384.82 1352 1379 1346.18 1379 1339Z" fill-rule="evenodd"/></g></svg>